<svg width="357" height="274" viewBox="0 0 357 274" fill="none" xmlns="http://www.w3.org/2000/svg">
<rect width="357" height="274" fill="white"/>
<path d="M16 1H340.453C348.737 1 355.453 7.71573 355.453 16V258C355.453 266.284 348.737 273 340.453 273H16C7.71573 273 1 266.284 1 258V16C1 7.71573 7.71573 1 16 1Z" stroke="#F5F5F5" stroke-width="2"/>
<mask id="mask0_27_16909" style="mask-type:alpha" maskUnits="userSpaceOnUse" x="2" y="128" width="353" height="146">
<rect x="2.00928" y="128.469" width="352.435" height="145.531" rx="16" fill="white"/>
</mask>
<g mask="url(#mask0_27_16909)">
<path d="M59.985 187.743C26.8994 185.077 14.463 214.532 1.02197 235.266L1.02209 274H48.1258H363.516V203.277C368.444 222.93 368.607 235.823 373.02 218.324C384.429 173.079 288.938 158.199 253.597 166.153C231.334 171.163 197.629 171.692 162.813 196.993C137.626 215.297 101.342 191.075 59.985 187.743Z" fill="#154D4F"/>
</g>
<mask id="mask1_27_16909" style="mask-type:alpha" maskUnits="userSpaceOnUse" x="2" y="150" width="353" height="124">
<rect x="2.02979" y="150.121" width="352.427" height="123.879" rx="16" fill="white"/>
</mask>
<g mask="url(#mask1_27_16909)">
<path d="M60.0037 205.862C26.9188 203.594 14.4827 228.645 1.04199 246.279L1.04211 279.221H48.1448H363.528V219.073C368.456 235.787 360.075 205.079 364.488 190.196C375.897 151.717 285.241 167.668 249.901 174.432C227.638 178.693 197.644 192.211 162.829 213.729C137.644 229.295 101.36 208.696 60.0037 205.862Z" fill="url(#paint0_linear_27_16909)" fill-opacity="0.5" stroke="#88DE7C" stroke-width="2"/>
</g>
<path d="M26.8185 30.5994V28.8324H36.1026V30.5994H32.506V40.4688H30.4151V30.5994H26.8185ZM40.3426 40.6392C39.4904 40.6392 38.7517 40.4517 38.1267 40.0767C37.5017 39.7017 37.0169 39.1771 36.6722 38.5028C36.3313 37.8286 36.1608 37.0407 36.1608 36.1392C36.1608 35.2377 36.3313 34.4479 36.6722 33.7699C37.0169 33.0919 37.5017 32.5653 38.1267 32.1903C38.7517 31.8153 39.4904 31.6278 40.3426 31.6278C41.1949 31.6278 41.9335 31.8153 42.5585 32.1903C43.1835 32.5653 43.6665 33.0919 44.0074 33.7699C44.3521 34.4479 44.5245 35.2377 44.5245 36.1392C44.5245 37.0407 44.3521 37.8286 44.0074 38.5028C43.6665 39.1771 43.1835 39.7017 42.5585 40.0767C41.9335 40.4517 41.1949 40.6392 40.3426 40.6392ZM40.354 38.9915C40.8161 38.9915 41.2025 38.8646 41.5131 38.6108C41.8237 38.3532 42.0548 38.0085 42.2063 37.5767C42.3616 37.1449 42.4392 36.6638 42.4392 36.1335C42.4392 35.5994 42.3616 35.1165 42.2063 34.6847C42.0548 34.2491 41.8237 33.9025 41.5131 33.6449C41.2025 33.3873 40.8161 33.2585 40.354 33.2585C39.8805 33.2585 39.4866 33.3873 39.1722 33.6449C38.8616 33.9025 38.6286 34.2491 38.4733 34.6847C38.3218 35.1165 38.246 35.5994 38.246 36.1335C38.246 36.6638 38.3218 37.1449 38.4733 37.5767C38.6286 38.0085 38.8616 38.3532 39.1722 38.6108C39.4866 38.8646 39.8805 38.9915 40.354 38.9915ZM50.6282 31.7415V33.3324H45.6111V31.7415H50.6282ZM46.8497 29.6506H48.9066V37.8438C48.9066 38.1203 48.9482 38.3324 49.0316 38.4801C49.1187 38.6241 49.2323 38.7225 49.3725 38.7756C49.5126 38.8286 49.6679 38.8551 49.8384 38.8551C49.9672 38.8551 50.0846 38.8456 50.1907 38.8267C50.3005 38.8078 50.3838 38.7907 50.4407 38.7756L50.7872 40.3835C50.6774 40.4214 50.5202 40.4631 50.3157 40.5085C50.1149 40.554 49.8687 40.5805 49.577 40.5881C49.0619 40.6032 48.5978 40.5256 48.185 40.3551C47.7721 40.1809 47.4444 39.9119 47.202 39.5483C46.9634 39.1847 46.846 38.7301 46.8497 38.1847V29.6506ZM54.8597 40.6449C54.3067 40.6449 53.8085 40.5464 53.3654 40.3494C52.926 40.1487 52.5775 39.8532 52.3199 39.4631C52.0661 39.0729 51.9392 38.5919 51.9392 38.0199C51.9392 37.5275 52.0301 37.1203 52.212 36.7983C52.3938 36.4763 52.6419 36.2188 52.9563 36.0256C53.2707 35.8324 53.6248 35.6866 54.0188 35.5881C54.4165 35.4858 54.8275 35.4119 55.2517 35.3665C55.7631 35.3134 56.1779 35.2661 56.496 35.2244C56.8142 35.179 57.0453 35.1108 57.1892 35.0199C57.337 34.9252 57.4108 34.7794 57.4108 34.5824V34.5483C57.4108 34.1203 57.2839 33.7888 57.0301 33.554C56.7764 33.3191 56.4108 33.2017 55.9335 33.2017C55.4298 33.2017 55.0301 33.3116 54.7347 33.5312C54.443 33.7509 54.246 34.0104 54.1438 34.3097L52.2233 34.0369C52.3748 33.5066 52.6248 33.0634 52.9733 32.7074C53.3218 32.3475 53.7479 32.0786 54.2517 31.9006C54.7555 31.7188 55.3123 31.6278 55.9222 31.6278C56.3426 31.6278 56.7612 31.6771 57.1779 31.7756C57.5945 31.8741 57.9752 32.0369 58.3199 32.2642C58.6646 32.4877 58.9411 32.7926 59.1495 33.179C59.3616 33.5653 59.4676 34.0483 59.4676 34.6278V40.4688H57.4904V39.2699H57.4222C57.2972 39.5123 57.121 39.7396 56.8938 39.9517C56.6703 40.16 56.3881 40.3286 56.0472 40.4574C55.7101 40.5824 55.3142 40.6449 54.8597 40.6449ZM55.3938 39.1335C55.8067 39.1335 56.1646 39.0521 56.4676 38.8892C56.7707 38.7225 57.0036 38.5028 57.1665 38.2301C57.3332 37.9574 57.4165 37.66 57.4165 37.3381V36.3097C57.3521 36.3627 57.2423 36.4119 57.087 36.4574C56.9354 36.5028 56.765 36.5426 56.5756 36.5767C56.3862 36.6108 56.1987 36.6411 56.0131 36.6676C55.8275 36.6941 55.6665 36.7169 55.5301 36.7358C55.2233 36.7775 54.9487 36.8456 54.7063 36.9403C54.4639 37.035 54.2726 37.1676 54.1324 37.3381C53.9923 37.5047 53.9222 37.7206 53.9222 37.9858C53.9222 38.3646 54.0604 38.6506 54.337 38.8438C54.6135 39.0369 54.9657 39.1335 55.3938 39.1335ZM63.5926 28.8324V40.4688H61.5358V28.8324H63.5926Z" fill="black"/>
<path d="M27.2389 59.4688V50.7415H30.2901C30.898 50.7415 31.3995 50.8466 31.7943 51.0568C32.1892 51.2642 32.4833 51.544 32.6764 51.8963C32.8696 52.2457 32.9662 52.6335 32.9662 53.0597C32.9662 53.4347 32.8995 53.7443 32.7659 53.9886C32.6353 54.233 32.462 54.4261 32.246 54.5682C32.033 54.7102 31.8014 54.8153 31.5514 54.8835V54.9688C31.8185 54.9858 32.087 55.0795 32.3568 55.25C32.6267 55.4205 32.8526 55.6648 33.0344 55.983C33.2162 56.3011 33.3071 56.6903 33.3071 57.1506C33.3071 57.5881 33.2077 57.9815 33.0088 58.331C32.81 58.6804 32.496 58.9574 32.0671 59.1619C31.6381 59.3665 31.0799 59.4688 30.3924 59.4688H27.2389ZM28.2958 58.5312H30.3924C31.0827 58.5312 31.5728 58.3977 31.8625 58.1307C32.1551 57.8608 32.3014 57.5341 32.3014 57.1506C32.3014 56.8551 32.2262 56.5824 32.0756 56.3324C31.925 56.0795 31.7105 55.8778 31.4321 55.7273C31.1537 55.5739 30.8242 55.4972 30.4435 55.4972H28.2958V58.5312ZM28.2958 54.5767H30.256C30.5742 54.5767 30.8611 54.5142 31.1168 54.3892C31.3753 54.2642 31.5799 54.0881 31.7304 53.8608C31.8838 53.6335 31.9605 53.3665 31.9605 53.0597C31.9605 52.6761 31.827 52.3509 31.56 52.0838C31.2929 51.8139 30.8696 51.679 30.2901 51.679H28.2958V54.5767ZM36.8334 59.6222C36.4186 59.6222 36.0422 59.544 35.7041 59.3878C35.3661 59.2287 35.0976 59 34.8987 58.7017C34.6999 58.4006 34.6005 58.0369 34.6005 57.6108C34.6005 57.2358 34.6743 56.9318 34.822 56.6989C34.9698 56.4631 35.1672 56.2784 35.4144 56.1449C35.6615 56.0114 35.9343 55.9119 36.2326 55.8466C36.5337 55.7784 36.8362 55.7244 37.1402 55.6847C37.538 55.6335 37.8604 55.5952 38.1076 55.5696C38.3576 55.5412 38.5394 55.4943 38.653 55.429C38.7695 55.3636 38.8277 55.25 38.8277 55.0881V55.054C38.8277 54.6335 38.7127 54.3068 38.4826 54.0739C38.2553 53.8409 37.9101 53.7244 37.447 53.7244C36.9669 53.7244 36.5905 53.8295 36.3178 54.0398C36.0451 54.25 35.8533 54.4744 35.7425 54.7131L34.788 54.3722C34.9584 53.9744 35.1857 53.6648 35.4698 53.4432C35.7567 53.2187 36.0692 53.0625 36.4073 52.9744C36.7482 52.8835 37.0834 52.8381 37.413 52.8381C37.6232 52.8381 37.8647 52.8636 38.1374 52.9148C38.413 52.9631 38.6786 53.0639 38.9343 53.2173C39.1928 53.3707 39.4073 53.6023 39.5777 53.9119C39.7482 54.2216 39.8334 54.6364 39.8334 55.1562V59.4688H38.8277V58.5824H38.7766C38.7084 58.7244 38.5948 58.8764 38.4357 59.0384C38.2766 59.2003 38.0649 59.3381 37.8007 59.4517C37.5365 59.5653 37.2141 59.6222 36.8334 59.6222ZM36.9868 58.7188C37.3845 58.7188 37.7198 58.6406 37.9925 58.4844C38.2681 58.3281 38.4755 58.1264 38.6147 57.8793C38.7567 57.6321 38.8277 57.3722 38.8277 57.0994V56.179C38.7851 56.2301 38.6914 56.277 38.5465 56.3196C38.4044 56.3594 38.2397 56.3949 38.0522 56.4261C37.8675 56.4545 37.6871 56.4801 37.511 56.5028C37.3377 56.5227 37.197 56.5398 37.0891 56.554C36.8277 56.5881 36.5834 56.6435 36.3561 56.7202C36.1317 56.794 35.9499 56.9062 35.8107 57.0568C35.6743 57.2045 35.6061 57.4062 35.6061 57.6619C35.6061 58.0114 35.7354 58.2756 35.9939 58.4545C36.2553 58.6307 36.5862 58.7188 36.9868 58.7188ZM46.3054 54.3892L45.4019 54.6449C45.3451 54.4943 45.2613 54.348 45.1505 54.206C45.0426 54.0611 44.8948 53.9418 44.7073 53.848C44.5198 53.7543 44.2798 53.7074 43.9872 53.7074C43.5866 53.7074 43.2528 53.7997 42.9858 53.9844C42.7215 54.1662 42.5894 54.3977 42.5894 54.679C42.5894 54.929 42.6804 55.1264 42.8622 55.2713C43.044 55.4162 43.3281 55.5369 43.7144 55.6335L44.686 55.8722C45.2713 56.0142 45.7073 56.2315 45.9943 56.5241C46.2812 56.8139 46.4247 57.1875 46.4247 57.6449C46.4247 58.0199 46.3167 58.3551 46.1008 58.6506C45.8877 58.946 45.5894 59.179 45.2059 59.3494C44.8224 59.5199 44.3764 59.6051 43.8679 59.6051C43.2002 59.6051 42.6477 59.4602 42.2102 59.1705C41.7727 58.8807 41.4957 58.4574 41.3792 57.9006L42.3338 57.6619C42.4247 58.0142 42.5965 58.2784 42.8494 58.4545C43.1051 58.6307 43.4389 58.7188 43.8508 58.7188C44.3196 58.7188 44.6917 58.6193 44.9673 58.4205C45.2457 58.2187 45.3849 57.9773 45.3849 57.696C45.3849 57.4687 45.3054 57.2784 45.1463 57.125C44.9872 56.9688 44.7429 56.8523 44.4133 56.7756L43.3224 56.5199C42.723 56.3778 42.2826 56.1577 42.0014 55.8594C41.723 55.5582 41.5838 55.1818 41.5838 54.7301C41.5838 54.3608 41.6875 54.0341 41.8948 53.75C42.1051 53.4659 42.3906 53.2429 42.7514 53.081C43.115 52.919 43.5269 52.8381 43.9872 52.8381C44.6349 52.8381 45.1434 52.9801 45.5127 53.2642C45.8849 53.5483 46.1491 53.9233 46.3054 54.3892ZM47.9385 59.4688V52.9233H48.9442V59.4688H47.9385ZM48.4499 51.8324C48.2539 51.8324 48.0848 51.7656 47.9428 51.6321C47.8036 51.4986 47.734 51.3381 47.734 51.1506C47.734 50.9631 47.8036 50.8026 47.9428 50.669C48.0848 50.5355 48.2539 50.4688 48.4499 50.4688C48.6459 50.4688 48.8135 50.5355 48.9527 50.669C49.0948 50.8026 49.1658 50.9631 49.1658 51.1506C49.1658 51.3381 49.0948 51.4986 48.9527 51.6321C48.8135 51.7656 48.6459 51.8324 48.4499 51.8324ZM55.4225 54.3892L54.5191 54.6449C54.4623 54.4943 54.3785 54.348 54.2677 54.206C54.1598 54.0611 54.012 53.9418 53.8245 53.848C53.637 53.7543 53.397 53.7074 53.1044 53.7074C52.7038 53.7074 52.37 53.7997 52.1029 53.9844C51.8387 54.1662 51.7066 54.3977 51.7066 54.679C51.7066 54.929 51.7975 55.1264 51.9794 55.2713C52.1612 55.4162 52.4453 55.5369 52.8316 55.6335L53.8032 55.8722C54.3884 56.0142 54.8245 56.2315 55.1115 56.5241C55.3984 56.8139 55.5419 57.1875 55.5419 57.6449C55.5419 58.0199 55.4339 58.3551 55.218 58.6506C55.0049 58.946 54.7066 59.179 54.3231 59.3494C53.9396 59.5199 53.4936 59.6051 52.985 59.6051C52.3174 59.6051 51.7649 59.4602 51.3274 59.1705C50.8899 58.8807 50.6129 58.4574 50.4964 57.9006L51.451 57.6619C51.5419 58.0142 51.7137 58.2784 51.9666 58.4545C52.2223 58.6307 52.5561 58.7188 52.968 58.7188C53.4367 58.7188 53.8089 58.6193 54.0845 58.4205C54.3629 58.2187 54.5021 57.9773 54.5021 57.696C54.5021 57.4687 54.4225 57.2784 54.2635 57.125C54.1044 56.9688 53.86 56.8523 53.5305 56.7756L52.4396 56.5199C51.8402 56.3778 51.3998 56.1577 51.1186 55.8594C50.8402 55.5582 50.7009 55.1818 50.7009 54.7301C50.7009 54.3608 50.8046 54.0341 51.012 53.75C51.2223 53.4659 51.5078 53.2429 51.8686 53.081C52.2322 52.919 52.6441 52.8381 53.1044 52.8381C53.7521 52.8381 54.2606 52.9801 54.6299 53.2642C55.0021 53.5483 55.2663 53.9233 55.4225 54.3892ZM57.0557 59.4688V52.9233H58.0614V59.4688H57.0557ZM57.5671 51.8324C57.371 51.8324 57.202 51.7656 57.06 51.6321C56.9208 51.4986 56.8512 51.3381 56.8512 51.1506C56.8512 50.9631 56.9208 50.8026 57.06 50.669C57.202 50.5355 57.371 50.4688 57.5671 50.4688C57.7631 50.4688 57.9307 50.5355 58.0699 50.669C58.212 50.8026 58.283 50.9631 58.283 51.1506C58.283 51.3381 58.212 51.4986 58.0699 51.6321C57.9307 51.7656 57.7631 51.8324 57.5671 51.8324ZM60.909 55.5312V59.4688H59.9034V52.9233H60.875V53.946H60.9602C61.1136 53.6136 61.3465 53.3466 61.659 53.1449C61.9715 52.9403 62.375 52.8381 62.8693 52.8381C63.3125 52.8381 63.7002 52.929 64.0326 53.1108C64.365 53.2898 64.6235 53.5625 64.8082 53.929C64.9929 54.2926 65.0852 54.7528 65.0852 55.3097V59.4688H64.0795V55.3778C64.0795 54.8636 63.946 54.4631 63.6789 54.1761C63.4119 53.8864 63.0454 53.7415 62.5795 53.7415C62.2585 53.7415 61.9715 53.8111 61.7187 53.9503C61.4687 54.0895 61.2713 54.2926 61.1264 54.5597C60.9815 54.8267 60.909 55.1506 60.909 55.5312ZM69.3945 59.6051C68.849 59.6051 68.3675 59.4673 67.9499 59.1918C67.5323 58.9134 67.2056 58.5213 66.9698 58.0156C66.734 57.5071 66.6161 56.9062 66.6161 56.2131C66.6161 55.5256 66.734 54.929 66.9698 54.4233C67.2056 53.9176 67.5337 53.527 67.9541 53.2514C68.3746 52.9759 68.8604 52.8381 69.4115 52.8381C69.8377 52.8381 70.1743 52.9091 70.4215 53.0511C70.6715 53.1903 70.8618 53.3494 70.9925 53.5284C71.126 53.7045 71.2297 53.8494 71.3036 53.9631H71.3888V50.7415H72.3945V59.4688H71.4229V58.4631H71.3036C71.2297 58.5824 71.1246 58.733 70.9882 58.9148C70.8519 59.0937 70.6573 59.2543 70.4044 59.3963C70.1516 59.5355 69.8149 59.6051 69.3945 59.6051ZM69.5309 58.7017C69.9343 58.7017 70.2752 58.5966 70.5536 58.3864C70.832 58.1733 71.0436 57.8793 71.1885 57.5043C71.3334 57.1264 71.4059 56.6903 71.4059 56.196C71.4059 55.7074 71.3348 55.2798 71.1928 54.9134C71.0507 54.544 70.8405 54.2571 70.5621 54.0526C70.2837 53.8452 69.9399 53.7415 69.5309 53.7415C69.1047 53.7415 68.7496 53.8509 68.4655 54.0696C68.1843 54.2855 67.9726 54.5795 67.8306 54.9517C67.6914 55.321 67.6218 55.7358 67.6218 56.196C67.6218 56.6619 67.6928 57.0852 67.8348 57.4659C67.9797 57.8437 68.1928 58.1449 68.474 58.3693C68.7581 58.5909 69.1104 58.7017 69.5309 58.7017ZM77.2226 52.9233V53.7756H73.8306V52.9233H77.2226ZM74.8192 51.3551H75.8249V57.5938C75.8249 57.8778 75.8661 58.0909 75.9485 58.233C76.0337 58.3722 76.1416 58.4659 76.2723 58.5142C76.4059 58.5597 76.5465 58.5824 76.6942 58.5824C76.805 58.5824 76.8959 58.5767 76.9669 58.5653C77.038 58.5511 77.0948 58.5398 77.1374 58.5312L77.3419 59.4347C77.2737 59.4602 77.1786 59.4858 77.0564 59.5114C76.9343 59.5398 76.7794 59.554 76.5919 59.554C76.3078 59.554 76.0294 59.4929 75.7567 59.3707C75.4868 59.2486 75.2624 59.0625 75.0834 58.8125C74.9073 58.5625 74.8192 58.2472 74.8192 57.8665V51.3551ZM85.5877 59.6051C84.8632 59.6051 84.261 59.4276 83.7809 59.0724C83.3007 58.7145 83.0053 58.25 82.8945 57.679L83.082 54.4233C83.2951 53.929 83.6033 53.5412 84.0067 53.2599C84.413 52.9787 84.9059 52.8381 85.4854 52.8381C85.8263 52.8381 86.163 52.8949 86.4953 53.0085C86.8277 53.1222 87.1303 53.3068 87.403 53.5625C87.6757 53.8153 87.8931 54.1506 88.055 54.5682C88.2169 54.9858 88.2979 55.5 88.2979 56.1108V56.5369H83.2524V55.6676H87.2752C87.2752 55.2983 87.2013 54.9687 87.0536 54.679C86.9087 54.3892 86.7013 54.1605 86.4314 53.9929C86.1644 53.8253 85.849 53.7415 85.4854 53.7415C85.0848 53.7415 84.7382 53.8409 84.4456 54.0398C84.1559 54.2358 83.9328 54.4929 83.7766 54.8111C83.6203 55.1264 83.5422 55.4631 83.5422 55.821V56.4006C83.5422 56.8949 83.6289 57.3139 83.8022 57.6577C83.9755 57.9986 84.2155 58.2585 84.5223 58.4375C84.8291 58.6136 85.1843 58.7017 85.5877 58.7017C85.8519 58.7017 86.0905 58.6648 86.3036 58.5909C86.5195 58.5142 86.7056 58.4006 86.8618 58.25C87.0181 58.0966 87.1388 57.9062 87.224 57.679L88.1956 57.9517C88.0934 58.2812 87.9215 58.571 87.68 58.821C87.4385 59.0682 87.1402 59.2614 86.7851 59.4006C86.43 59.5369 86.0309 59.6051 85.5877 59.6051ZM80.8149 58.7188C81.2127 58.7188 81.5479 58.6406 81.8206 58.4844C82.0962 58.3281 82.3036 58.1264 82.4428 57.8793C82.5848 57.6321 82.6559 57.3722 82.6559 57.0994V56.179C82.6132 56.2301 82.5195 56.277 82.3746 56.3196C82.2326 56.3594 82.0678 56.3949 81.8803 56.4261C81.6956 56.4545 81.5152 56.4801 81.3391 56.5028C81.1658 56.5227 81.0252 56.5398 80.9172 56.554C80.6559 56.5881 80.4115 56.6435 80.1843 56.7202C79.9598 56.794 79.778 56.9062 79.6388 57.0568C79.5024 57.2045 79.4343 57.4062 79.4343 57.6619C79.4343 58.0114 79.5635 58.2756 79.822 58.4545C80.0834 58.6307 80.4144 58.7188 80.8149 58.7188ZM80.6615 59.6222C80.2468 59.6222 79.8703 59.544 79.5323 59.3878C79.1942 59.2287 78.9257 59 78.7269 58.7017C78.528 58.4006 78.4286 58.0369 78.4286 57.6108C78.4286 57.2358 78.5024 56.9318 78.6502 56.6989C78.8007 56.4631 78.9982 56.2784 79.2425 56.1449C79.4897 56.0085 79.7638 55.9077 80.0649 55.8423C80.3661 55.7741 80.6672 55.7216 80.9684 55.6847C81.3661 55.6335 81.6885 55.5937 81.9357 55.5653C82.1857 55.5369 82.3675 55.4901 82.4811 55.4247C82.5976 55.3594 82.6559 55.2472 82.6559 55.0881V55.054C82.6559 54.6364 82.5408 54.3111 82.3107 54.0781C82.0806 53.8423 81.7354 53.7244 81.2752 53.7244C80.7979 53.7244 80.4215 53.8295 80.1459 54.0398C79.8732 54.25 79.6814 54.4744 79.5706 54.7131L78.6161 54.3722C78.7865 53.9744 79.0138 53.6648 79.2979 53.4432C79.5848 53.2187 79.8973 53.0625 80.2354 52.9744C80.5763 52.8835 80.9115 52.8381 81.2411 52.8381C81.4172 52.8381 81.6161 52.8551 81.8377 52.8892C82.0593 52.9205 82.2823 52.9844 82.5067 53.081C82.7311 53.1776 82.9357 53.321 83.1203 53.5114C83.305 53.7017 83.4456 53.9545 83.5422 54.2699L83.1502 58.2756H83.0649C82.9797 58.5199 82.8192 58.7443 82.5834 58.9489C82.3505 59.1534 82.0664 59.3168 81.7311 59.4389C81.3987 59.5611 81.0422 59.6222 80.6615 59.6222ZM92.4751 62.0597C91.9893 62.0597 91.5717 61.9972 91.2223 61.8722C90.8728 61.75 90.5816 61.5881 90.3487 61.3864C90.1186 61.1875 89.9353 60.9744 89.799 60.7472L90.6001 60.1847C90.691 60.304 90.8061 60.4403 90.9453 60.5938C91.0845 60.75 91.2748 60.8849 91.5163 60.9986C91.7606 61.1151 92.0802 61.1733 92.4751 61.1733C93.0035 61.1733 93.4396 61.0455 93.7833 60.7898C94.1271 60.5341 94.299 60.1335 94.299 59.5881V58.2585H94.2137C94.1399 58.3778 94.0348 58.5256 93.8984 58.7017C93.7649 58.875 93.5717 59.0298 93.3188 59.1662C93.0688 59.2997 92.7308 59.3665 92.3046 59.3665C91.7762 59.3665 91.3018 59.2415 90.8813 58.9915C90.4637 58.7415 90.1328 58.3778 89.8884 57.9006C89.647 57.4233 89.5262 56.8437 89.5262 56.1619C89.5262 55.4915 89.6441 54.9077 89.8799 54.4105C90.1157 53.9105 90.4438 53.5241 90.8643 53.2514C91.2848 52.9759 91.7706 52.8381 92.3217 52.8381C92.7478 52.8381 93.0859 52.9091 93.3359 53.0511C93.5887 53.1903 93.7819 53.3494 93.9154 53.5284C94.0518 53.7045 94.1569 53.8494 94.2308 53.9631H94.3331V52.9233H95.3046V59.6562C95.3046 60.2188 95.1768 60.6761 94.9211 61.0284C94.6683 61.3835 94.3274 61.6435 93.8984 61.8082C93.4723 61.9759 92.9978 62.0597 92.4751 62.0597ZM92.441 58.4631C92.8444 58.4631 93.1853 58.3707 93.4637 58.1861C93.7421 58.0014 93.9538 57.7358 94.0987 57.3892C94.2436 57.0426 94.316 56.6278 94.316 56.1449C94.316 55.6733 94.245 55.2571 94.1029 54.8963C93.9609 54.5355 93.7507 54.2528 93.4723 54.0483C93.1938 53.8437 92.8501 53.7415 92.441 53.7415C92.0149 53.7415 91.6598 53.8494 91.3757 54.0653C91.0944 54.2812 90.8828 54.571 90.7407 54.9347C90.6015 55.2983 90.5319 55.7017 90.5319 56.1449C90.5319 56.5994 90.6029 57.0014 90.745 57.3509C90.8899 57.6974 91.1029 57.9702 91.3842 58.169C91.6683 58.3651 92.0206 58.4631 92.441 58.4631ZM99.9921 52.9233V53.7756H96.6001V52.9233H99.9921ZM97.5887 51.3551H98.5944V57.5938C98.5944 57.8778 98.6356 58.0909 98.718 58.233C98.8032 58.3722 98.9112 58.4659 99.0419 58.5142C99.1754 58.5597 99.316 58.5824 99.4637 58.5824C99.5745 58.5824 99.6654 58.5767 99.7365 58.5653C99.8075 58.5511 99.8643 58.5398 99.9069 58.5312L100.111 59.4347C100.043 59.4602 99.9481 59.4858 99.826 59.5114C99.7038 59.5398 99.549 59.554 99.3615 59.554C99.0774 59.554 98.799 59.4929 98.5262 59.3707C98.2563 59.2486 98.0319 59.0625 97.8529 58.8125C97.6768 58.5625 97.5887 58.2472 97.5887 57.8665V51.3551ZM107.795 52.9233V53.7756H104.266V52.9233H107.795ZM105.323 59.4688V52.0199C105.323 51.6449 105.411 51.3324 105.587 51.0824C105.763 50.8324 105.992 50.6449 106.273 50.5199C106.555 50.3949 106.852 50.3324 107.164 50.3324C107.411 50.3324 107.613 50.3523 107.769 50.392C107.925 50.4318 108.042 50.4687 108.119 50.5028L107.829 51.3722C107.778 51.3551 107.707 51.3338 107.616 51.3082C107.528 51.2827 107.411 51.2699 107.266 51.2699C106.934 51.2699 106.694 51.3537 106.546 51.5213C106.401 51.6889 106.329 51.9347 106.329 52.2585V59.4688H105.323ZM109.204 59.4688V52.9233H110.176V53.9119H110.244C110.363 53.5881 110.579 53.3253 110.892 53.1236C111.204 52.9219 111.556 52.821 111.948 52.821C112.022 52.821 112.115 52.8224 112.225 52.8253C112.336 52.8281 112.42 52.8324 112.477 52.8381V53.8608C112.443 53.8523 112.365 53.8395 112.242 53.8224C112.123 53.8026 111.997 53.7926 111.863 53.7926C111.545 53.7926 111.261 53.8594 111.011 53.9929C110.764 54.1236 110.568 54.3054 110.423 54.5384C110.281 54.7685 110.21 55.0312 110.21 55.3267V59.4688H109.204ZM115.595 59.6222C115.18 59.6222 114.804 59.544 114.466 59.3878C114.128 59.2287 113.859 59 113.66 58.7017C113.462 58.4006 113.362 58.0369 113.362 57.6108C113.362 57.2358 113.436 56.9318 113.584 56.6989C113.731 56.4631 113.929 56.2784 114.176 56.1449C114.423 56.0114 114.696 55.9119 114.994 55.8466C115.295 55.7784 115.598 55.7244 115.902 55.6847C116.3 55.6335 116.622 55.5952 116.869 55.5696C117.119 55.5412 117.301 55.4943 117.415 55.429C117.531 55.3636 117.589 55.25 117.589 55.0881V55.054C117.589 54.6335 117.474 54.3068 117.244 54.0739C117.017 53.8409 116.672 53.7244 116.209 53.7244C115.729 53.7244 115.352 53.8295 115.08 54.0398C114.807 54.25 114.615 54.4744 114.504 54.7131L113.55 54.3722C113.72 53.9744 113.947 53.6648 114.231 53.4432C114.518 53.2187 114.831 53.0625 115.169 52.9744C115.51 52.8835 115.845 52.8381 116.175 52.8381C116.385 52.8381 116.626 52.8636 116.899 52.9148C117.175 52.9631 117.44 53.0639 117.696 53.2173C117.955 53.3707 118.169 53.6023 118.339 53.9119C118.51 54.2216 118.595 54.6364 118.595 55.1562V59.4688H117.589V58.5824H117.538C117.47 58.7244 117.356 58.8764 117.197 59.0384C117.038 59.2003 116.827 59.3381 116.562 59.4517C116.298 59.5653 115.976 59.6222 115.595 59.6222ZM115.749 58.7188C116.146 58.7188 116.481 58.6406 116.754 58.4844C117.03 58.3281 117.237 58.1264 117.376 57.8793C117.518 57.6321 117.589 57.3722 117.589 57.0994V56.179C117.547 56.2301 117.453 56.277 117.308 56.3196C117.166 56.3594 117.001 56.3949 116.814 56.4261C116.629 56.4545 116.449 56.4801 116.273 56.5028C116.099 56.5227 115.959 56.5398 115.851 56.554C115.589 56.5881 115.345 56.6435 115.118 56.7202C114.893 56.794 114.712 56.9062 114.572 57.0568C114.436 57.2045 114.368 57.4062 114.368 57.6619C114.368 58.0114 114.497 58.2756 114.756 58.4545C115.017 58.6307 115.348 58.7188 115.749 58.7188ZM128.442 54.3892L127.539 54.6449C127.482 54.4943 127.398 54.348 127.287 54.206C127.179 54.0611 127.032 53.9418 126.844 53.848C126.657 53.7543 126.417 53.7074 126.124 53.7074C125.723 53.7074 125.39 53.7997 125.122 53.9844C124.858 54.1662 124.726 54.3977 124.726 54.679C124.726 54.929 124.817 55.1264 124.999 55.2713C125.181 55.4162 125.465 55.5369 125.851 55.6335L126.823 55.8722C127.408 56.0142 127.844 56.2315 128.131 56.5241C128.418 56.8139 128.561 57.1875 128.561 57.6449C128.561 58.0199 128.453 58.3551 128.238 58.6506C128.024 58.946 127.726 59.179 127.343 59.3494C126.959 59.5199 126.513 59.6051 126.005 59.6051C125.337 59.6051 124.784 59.4602 124.347 59.1705C123.909 58.8807 123.632 58.4574 123.516 57.9006L124.47 57.6619C124.561 58.0142 124.733 58.2784 124.986 58.4545C125.242 58.6307 125.576 58.7188 125.988 58.7188C126.456 58.7188 126.828 58.6193 127.104 58.4205C127.382 58.2187 127.522 57.9773 127.522 57.696C127.522 57.4687 127.442 57.2784 127.283 57.125C127.124 56.9688 126.88 56.8523 126.55 56.7756L125.459 56.5199C124.86 56.3778 124.419 56.1577 124.138 55.8594C123.86 55.5582 123.72 55.1818 123.72 54.7301C123.72 54.3608 123.824 54.0341 124.032 53.75C124.242 53.4659 124.527 53.2429 124.888 53.081C125.252 52.919 125.664 52.8381 126.124 52.8381C126.772 52.8381 127.28 52.9801 127.649 53.2642C128.022 53.5483 128.286 53.9233 128.442 54.3892ZM132.922 52.9233V53.7756H129.53V52.9233H132.922ZM130.518 51.3551H131.524V57.5938C131.524 57.8778 131.565 58.0909 131.648 58.233C131.733 58.3722 131.841 58.4659 131.972 58.5142C132.105 58.5597 132.246 58.5824 132.393 58.5824C132.504 58.5824 132.595 58.5767 132.666 58.5653C132.737 58.5511 132.794 58.5398 132.837 58.5312L133.041 59.4347C132.973 59.4602 132.878 59.4858 132.756 59.5114C132.633 59.5398 132.479 59.554 132.291 59.554C132.007 59.554 131.729 59.4929 131.456 59.3707C131.186 59.2486 130.962 59.0625 130.783 58.8125C130.606 58.5625 130.518 58.2472 130.518 57.8665V51.3551ZM134.435 59.4688V52.9233H135.406V53.9119H135.474C135.594 53.5881 135.81 53.3253 136.122 53.1236C136.435 52.9219 136.787 52.821 137.179 52.821C137.253 52.821 137.345 52.8224 137.456 52.8253C137.567 52.8281 137.651 52.8324 137.707 52.8381V53.8608C137.673 53.8523 137.595 53.8395 137.473 53.8224C137.354 53.8026 137.227 53.7926 137.094 53.7926C136.776 53.7926 136.491 53.8594 136.241 53.9929C135.994 54.1236 135.798 54.3054 135.653 54.5384C135.511 54.7685 135.44 55.0312 135.44 55.3267V59.4688H134.435ZM139.399 59.8267L138.751 59.3835L143.32 52.6165L143.967 53.0597L139.399 59.8267ZM141.359 59.6051C140.768 59.6051 140.25 59.4645 139.804 59.1832C139.361 58.902 139.014 58.5085 138.764 58.0028C138.517 57.4972 138.393 56.9062 138.393 56.2301C138.393 55.5483 138.517 54.9531 138.764 54.4446C139.014 53.9361 139.361 53.5412 139.804 53.2599C140.25 52.9787 140.768 52.8381 141.359 52.8381C141.95 52.8381 142.467 52.9787 142.91 53.2599C143.356 53.5412 143.703 53.9361 143.95 54.4446C144.2 54.9531 144.325 55.5483 144.325 56.2301C144.325 56.9062 144.2 57.4972 143.95 58.0028C143.703 58.5085 143.356 58.902 142.91 59.1832C142.467 59.4645 141.95 59.6051 141.359 59.6051ZM141.359 58.7017C141.808 58.7017 142.178 58.5866 142.467 58.3565C142.757 58.1264 142.972 57.8239 143.111 57.4489C143.25 57.0739 143.32 56.6676 143.32 56.2301C143.32 55.7926 143.25 55.3849 143.111 55.0071C142.972 54.6293 142.757 54.3239 142.467 54.0909C142.178 53.858 141.808 53.7415 141.359 53.7415C140.91 53.7415 140.541 53.858 140.251 54.0909C139.962 54.3239 139.747 54.6293 139.608 55.0071C139.469 55.3849 139.399 55.7926 139.399 56.2301C139.399 56.6676 139.469 57.0739 139.608 57.4489C139.747 57.8239 139.962 58.1264 140.251 58.3565C140.541 58.5866 140.91 58.7017 141.359 58.7017ZM145.86 59.4688V52.9233H146.832V53.946H146.917C147.054 53.5966 147.274 53.3253 147.578 53.1321C147.882 52.9361 148.247 52.8381 148.673 52.8381C149.105 52.8381 149.464 52.9361 149.751 53.1321C150.041 53.3253 150.267 53.5966 150.429 53.946H150.497C150.664 53.608 150.916 53.3395 151.251 53.1406C151.586 52.9389 151.988 52.8381 152.457 52.8381C153.042 52.8381 153.521 53.0213 153.893 53.3878C154.265 53.7514 154.451 54.3182 154.451 55.0881V59.4688H153.446V55.0881C153.446 54.6051 153.314 54.2599 153.049 54.0526C152.785 53.8452 152.474 53.7415 152.116 53.7415C151.656 53.7415 151.299 53.8807 151.046 54.1591C150.794 54.4347 150.667 54.7841 150.667 55.2074V59.4688H149.644V54.9858C149.644 54.6136 149.524 54.3139 149.282 54.0866C149.041 53.8565 148.73 53.7415 148.349 53.7415C148.088 53.7415 147.843 53.8111 147.616 53.9503C147.392 54.0895 147.21 54.2827 147.071 54.5298C146.934 54.7741 146.866 55.0568 146.866 55.3778V59.4688H145.86ZM156.29 61.9233V52.9233H157.262V53.9631H157.381C157.455 53.8494 157.557 53.7045 157.688 53.5284C157.821 53.3494 158.012 53.1903 158.259 53.0511C158.509 52.9091 158.847 52.8381 159.273 52.8381C159.824 52.8381 160.31 52.9759 160.73 53.2514C161.151 53.527 161.479 53.9176 161.715 54.4233C161.951 54.929 162.068 55.5256 162.068 56.2131C162.068 56.9062 161.951 57.5071 161.715 58.0156C161.479 58.5213 161.152 58.9134 160.735 59.1918C160.317 59.4673 159.836 59.6051 159.29 59.6051C158.87 59.6051 158.533 59.5355 158.28 59.3963C158.027 59.2543 157.833 59.0937 157.696 58.9148C157.56 58.733 157.455 58.5824 157.381 58.4631H157.296V61.9233H156.29ZM157.279 56.196C157.279 56.6903 157.351 57.1264 157.496 57.5043C157.641 57.8793 157.853 58.1733 158.131 58.3864C158.409 58.5966 158.75 58.7017 159.154 58.7017C159.574 58.7017 159.925 58.5909 160.206 58.3693C160.49 58.1449 160.703 57.8437 160.845 57.4659C160.99 57.0852 161.063 56.6619 161.063 56.196C161.063 55.7358 160.992 55.321 160.85 54.9517C160.711 54.5795 160.499 54.2855 160.215 54.0696C159.934 53.8509 159.58 53.7415 159.154 53.7415C158.745 53.7415 158.401 53.8452 158.122 54.0526C157.844 54.2571 157.634 54.544 157.492 54.9134C157.35 55.2798 157.279 55.7074 157.279 56.196ZM163.603 59.4688V52.9233H164.574V53.9119H164.642C164.762 53.5881 164.978 53.3253 165.29 53.1236C165.603 52.9219 165.955 52.821 166.347 52.821C166.421 52.821 166.513 52.8224 166.624 52.8253C166.735 52.8281 166.818 52.8324 166.875 52.8381V53.8608C166.841 53.8523 166.763 53.8395 166.641 53.8224C166.522 53.8026 166.395 53.7926 166.262 53.7926C165.943 53.7926 165.659 53.8594 165.409 53.9929C165.162 54.1236 164.966 54.3054 164.821 54.5384C164.679 54.7685 164.608 55.0312 164.608 55.3267V59.4688H163.603ZM170.527 59.6051C169.936 59.6051 169.418 59.4645 168.972 59.1832C168.529 58.902 168.182 58.5085 167.932 58.0028C167.685 57.4972 167.561 56.9062 167.561 56.2301C167.561 55.5483 167.685 54.9531 167.932 54.4446C168.182 53.9361 168.529 53.5412 168.972 53.2599C169.418 52.9787 169.936 52.8381 170.527 52.8381C171.118 52.8381 171.635 52.9787 172.078 53.2599C172.524 53.5412 172.871 53.9361 173.118 54.4446C173.368 54.9531 173.493 55.5483 173.493 56.2301C173.493 56.9062 173.368 57.4972 173.118 58.0028C172.871 58.5085 172.524 58.902 172.078 59.1832C171.635 59.4645 171.118 59.6051 170.527 59.6051ZM170.527 58.7017C170.976 58.7017 171.345 58.5866 171.635 58.3565C171.925 58.1264 172.14 57.8239 172.279 57.4489C172.418 57.0739 172.488 56.6676 172.488 56.2301C172.488 55.7926 172.418 55.3849 172.279 55.0071C172.14 54.6293 171.925 54.3239 171.635 54.0909C171.345 53.858 170.976 53.7415 170.527 53.7415C170.078 53.7415 169.709 53.858 169.419 54.0909C169.13 54.3239 168.915 54.6293 168.776 55.0071C168.637 55.3849 168.567 55.7926 168.567 56.2301C168.567 56.6676 168.637 57.0739 168.776 57.4489C168.915 57.8239 169.13 58.1264 169.419 58.3565C169.709 58.5866 170.078 58.7017 170.527 58.7017ZM177.5 59.6051C176.955 59.6051 176.473 59.4673 176.055 59.1918C175.638 58.9134 175.311 58.5213 175.075 58.0156C174.839 57.5071 174.722 56.9062 174.722 56.2131C174.722 55.5256 174.839 54.929 175.075 54.4233C175.311 53.9176 175.639 53.527 176.06 53.2514C176.48 52.9759 176.966 52.8381 177.517 52.8381C177.943 52.8381 178.28 52.9091 178.527 53.0511C178.777 53.1903 178.967 53.3494 179.098 53.5284C179.231 53.7045 179.335 53.8494 179.409 53.9631H179.494V50.7415H180.5V59.4688H179.528V58.4631H179.409C179.335 58.5824 179.23 58.733 179.094 58.9148C178.957 59.0937 178.763 59.2543 178.51 59.3963C178.257 59.5355 177.92 59.6051 177.5 59.6051ZM177.636 58.7017C178.04 58.7017 178.381 58.5966 178.659 58.3864C178.937 58.1733 179.149 57.8793 179.294 57.5043C179.439 57.1264 179.511 56.6903 179.511 56.196C179.511 55.7074 179.44 55.2798 179.298 54.9134C179.156 54.544 178.946 54.2571 178.668 54.0526C178.389 53.8452 178.045 53.7415 177.636 53.7415C177.21 53.7415 176.855 53.8509 176.571 54.0696C176.29 54.2855 176.078 54.5795 175.936 54.9517C175.797 55.321 175.727 55.7358 175.727 56.196C175.727 56.6619 175.798 57.0852 175.94 57.4659C176.085 57.8437 176.298 58.1449 176.58 58.3693C176.864 58.5909 177.216 58.7017 177.636 58.7017ZM186.606 56.7926V52.9233H187.612V59.4688H186.606V58.3608H186.538C186.385 58.6932 186.146 58.9759 185.822 59.2088C185.499 59.4389 185.089 59.554 184.595 59.554C184.186 59.554 183.822 59.4645 183.504 59.2855C183.186 59.1037 182.936 58.831 182.754 58.4673C182.572 58.1009 182.481 57.6392 182.481 57.0824V52.9233H183.487V57.0142C183.487 57.4915 183.621 57.8722 183.888 58.1562C184.158 58.4403 184.501 58.5824 184.919 58.5824C185.169 58.5824 185.423 58.5185 185.682 58.3906C185.943 58.2628 186.162 58.0668 186.338 57.8026C186.517 57.5384 186.606 57.2017 186.606 56.7926ZM190.392 57.0824L190.375 55.8381H190.579L193.443 52.9233H194.687L191.636 56.0085H191.551L190.392 57.0824ZM189.454 59.4688V50.7415H190.46V59.4688H189.454ZM193.613 59.4688L191.056 56.2301L191.772 55.5312L194.892 59.4688H193.613ZM198.828 52.9233V53.7756H195.436V52.9233H198.828ZM196.425 51.3551H197.43V57.5938C197.43 57.8778 197.472 58.0909 197.554 58.233C197.639 58.3722 197.747 58.4659 197.878 58.5142C198.011 58.5597 198.152 58.5824 198.3 58.5824C198.41 58.5824 198.501 58.5767 198.572 58.5653C198.643 58.5511 198.7 58.5398 198.743 58.5312L198.947 59.4347C198.879 59.4602 198.784 59.4858 198.662 59.5114C198.54 59.5398 198.385 59.554 198.197 59.554C197.913 59.554 197.635 59.4929 197.362 59.3707C197.092 59.2486 196.868 59.0625 196.689 58.8125C196.513 58.5625 196.425 58.2472 196.425 57.8665V51.3551ZM200.341 59.4688V52.9233H201.347V59.4688H200.341ZM200.852 51.8324C200.656 51.8324 200.487 51.7656 200.345 51.6321C200.206 51.4986 200.136 51.3381 200.136 51.1506C200.136 50.9631 200.206 50.8026 200.345 50.669C200.487 50.5355 200.656 50.4688 200.852 50.4688C201.048 50.4688 201.216 50.5355 201.355 50.669C201.497 50.8026 201.568 50.9631 201.568 51.1506C201.568 51.3381 201.497 51.4986 201.355 51.6321C201.216 51.7656 201.048 51.8324 200.852 51.8324ZM205.848 59.6051C205.257 59.6051 204.738 59.4645 204.292 59.1832C203.849 58.902 203.502 58.5085 203.252 58.0028C203.005 57.4972 202.882 56.9062 202.882 56.2301C202.882 55.5483 203.005 54.9531 203.252 54.4446C203.502 53.9361 203.849 53.5412 204.292 53.2599C204.738 52.9787 205.257 52.8381 205.848 52.8381C206.439 52.8381 206.956 52.9787 207.399 53.2599C207.845 53.5412 208.191 53.9361 208.439 54.4446C208.689 54.9531 208.814 55.5483 208.814 56.2301C208.814 56.9062 208.689 57.4972 208.439 58.0028C208.191 58.5085 207.845 58.902 207.399 59.1832C206.956 59.4645 206.439 59.6051 205.848 59.6051ZM205.848 58.7017C206.296 58.7017 206.666 58.5866 206.956 58.3565C207.245 58.1264 207.46 57.8239 207.599 57.4489C207.738 57.0739 207.808 56.6676 207.808 56.2301C207.808 55.7926 207.738 55.3849 207.599 55.0071C207.46 54.6293 207.245 54.3239 206.956 54.0909C206.666 53.858 206.296 53.7415 205.848 53.7415C205.399 53.7415 205.029 53.858 204.74 54.0909C204.45 54.3239 204.235 54.6293 204.096 55.0071C203.957 55.3849 203.887 55.7926 203.887 56.2301C203.887 56.6676 203.957 57.0739 204.096 57.4489C204.235 57.8239 204.45 58.1264 204.74 58.3565C205.029 58.5866 205.399 58.7017 205.848 58.7017ZM211.354 55.5312V59.4688H210.349V52.9233H211.32V53.946H211.405C211.559 53.6136 211.792 53.3466 212.104 53.1449C212.417 52.9403 212.82 52.8381 213.315 52.8381C213.758 52.8381 214.146 52.929 214.478 53.1108C214.81 53.2898 215.069 53.5625 215.254 53.929C215.438 54.2926 215.53 54.7528 215.53 55.3097V59.4688H214.525V55.3778C214.525 54.8636 214.391 54.4631 214.124 54.1761C213.857 53.8864 213.491 53.7415 213.025 53.7415C212.704 53.7415 212.417 53.8111 212.164 53.9503C211.914 54.0895 211.717 54.2926 211.572 54.5597C211.427 54.8267 211.354 55.1506 211.354 55.5312Z" fill="black"/>
<path d="M34.8327 82.0142V99.4688H31.6708V85.0909H31.5685L27.4861 87.6989V84.8011L31.8242 82.0142H34.8327ZM40.2382 99.6562C39.7212 99.6562 39.278 99.4744 38.9087 99.1108C38.5394 98.7472 38.3576 98.304 38.3632 97.7812C38.3576 97.2699 38.5394 96.8324 38.9087 96.4688C39.278 96.1051 39.7212 95.9233 40.2382 95.9233C40.7382 95.9233 41.1729 96.1051 41.5422 96.4688C41.9172 96.8324 42.1076 97.2699 42.1132 97.7812C42.1076 98.1278 42.0166 98.4432 41.8405 98.7273C41.6701 99.0114 41.4428 99.2386 41.1587 99.4091C40.8803 99.5739 40.5735 99.6562 40.2382 99.6562ZM45.2645 99.4688V97.1847L51.3242 91.2443C51.9037 90.6591 52.3867 90.1392 52.773 89.6847C53.1594 89.2301 53.4492 88.7898 53.6424 88.3636C53.8355 87.9375 53.9321 87.483 53.9321 87C53.9321 86.4489 53.8071 85.9773 53.5571 85.5852C53.3071 85.1875 52.9634 84.8807 52.5259 84.6648C52.0884 84.4489 51.5912 84.3409 51.0344 84.3409C50.4605 84.3409 49.9577 84.4602 49.5259 84.6989C49.0941 84.9318 48.7588 85.2642 48.5202 85.696C48.2872 86.1278 48.1708 86.642 48.1708 87.2386H45.1622C45.1622 86.1307 45.4151 85.1676 45.9208 84.3494C46.4264 83.5312 47.1225 82.8977 48.0088 82.4489C48.9009 82 49.9236 81.7756 51.077 81.7756C52.2475 81.7756 53.2759 81.9943 54.1622 82.4318C55.0486 82.8693 55.7361 83.4687 56.2247 84.2301C56.7191 84.9915 56.9662 85.8608 56.9662 86.8381C56.9662 87.4915 56.8412 88.1335 56.5912 88.7642C56.3412 89.3949 55.9009 90.0937 55.2702 90.8608C54.6452 91.6278 53.7674 92.5568 52.6367 93.6477L49.6282 96.7074V96.8267H57.2304V99.4688H45.2645ZM66.435 99.7074C65.2077 99.7074 64.1168 99.4972 63.1622 99.0767C62.2134 98.6562 61.4634 98.071 60.9122 97.321C60.3611 96.571 60.0685 95.7045 60.0344 94.7216H63.2389C63.2674 95.1932 63.4236 95.6051 63.7077 95.9574C63.9918 96.304 64.3696 96.5739 64.8412 96.767C65.3128 96.9602 65.8412 97.0568 66.4264 97.0568C67.0514 97.0568 67.6054 96.9489 68.0884 96.733C68.5713 96.5114 68.9492 96.2045 69.2219 95.8125C69.4946 95.4205 69.6282 94.9687 69.6225 94.4574C69.6282 93.929 69.4918 93.4631 69.2134 93.0597C68.935 92.6562 68.5316 92.3409 68.0032 92.1136C67.4804 91.8864 66.8497 91.7727 66.1111 91.7727H64.5685V89.3352H66.1111C66.7191 89.3352 67.2503 89.2301 67.7049 89.0199C68.1651 88.8097 68.5259 88.5142 68.7872 88.1335C69.0486 87.7472 69.1764 87.3011 69.1708 86.7955C69.1764 86.3011 69.0657 85.8722 68.8384 85.5085C68.6168 85.1392 68.3014 84.8523 67.8924 84.6477C67.4889 84.4432 67.0145 84.3409 66.4691 84.3409C65.935 84.3409 65.4407 84.4375 64.9861 84.6307C64.5316 84.8239 64.1651 85.0994 63.8867 85.4574C63.6083 85.8097 63.4605 86.2301 63.4435 86.7188H60.4009C60.4236 85.7415 60.7049 84.8835 61.2446 84.1449C61.7901 83.4006 62.5174 82.821 63.4264 82.4062C64.3355 81.9858 65.3554 81.7756 66.4861 81.7756C67.6509 81.7756 68.6622 81.9943 69.5202 82.4318C70.3838 82.8636 71.0514 83.446 71.523 84.179C71.9946 84.9119 72.2304 85.7216 72.2304 86.608C72.2361 87.5909 71.9463 88.4148 71.3611 89.0795C70.7816 89.7443 70.0202 90.179 69.077 90.3835V90.5199C70.3043 90.6903 71.2446 91.1449 71.898 91.8835C72.5571 92.6165 72.8838 93.5284 72.8782 94.6193C72.8782 95.5966 72.5997 96.4716 72.0429 97.2443C71.4918 98.0114 70.7304 98.6136 69.7588 99.0511C68.7929 99.4886 67.685 99.7074 66.435 99.7074ZM75.4882 96.2301V93.7159L82.8945 82.0142H84.9911V85.5938H83.7127L78.7269 93.4943V93.6307H89.0649V96.2301H75.4882ZM83.8149 99.4688V95.4631L83.849 94.3381V82.0142H86.832V99.4688H83.8149ZM93.2304 99.6562C92.7134 99.6562 92.2702 99.4744 91.9009 99.1108C91.5316 98.7472 91.3497 98.304 91.3554 97.7812C91.3497 97.2699 91.5316 96.8324 91.9009 96.4688C92.2702 96.1051 92.7134 95.9233 93.2304 95.9233C93.7304 95.9233 94.1651 96.1051 94.5344 96.4688C94.9094 96.8324 95.0997 97.2699 95.1054 97.7812C95.0997 98.1278 95.0088 98.4432 94.8327 98.7273C94.6622 99.0114 94.435 99.2386 94.1509 99.4091C93.8725 99.5739 93.5657 99.6562 93.2304 99.6562ZM104.029 99.8011C102.625 99.8011 101.421 99.446 100.415 98.7358C99.4151 98.0199 98.6452 96.9886 98.1054 95.642C97.5713 94.2898 97.3043 92.6619 97.3043 90.7585C97.31 88.8551 97.5799 87.2358 98.1139 85.9006C98.6537 84.5597 99.4236 83.5369 100.424 82.8324C101.429 82.1278 102.631 81.7756 104.029 81.7756C105.426 81.7756 106.628 82.1278 107.634 82.8324C108.64 83.5369 109.409 84.5597 109.943 85.9006C110.483 87.2415 110.753 88.8608 110.753 90.7585C110.753 92.6676 110.483 94.2983 109.943 95.6506C109.409 96.9972 108.64 98.0256 107.634 98.7358C106.634 99.446 105.432 99.8011 104.029 99.8011ZM104.029 97.1335C105.12 97.1335 105.98 96.5966 106.611 95.5227C107.247 94.4432 107.566 92.8551 107.566 90.7585C107.566 89.3722 107.421 88.2074 107.131 87.2642C106.841 86.321 106.432 85.6108 105.904 85.1335C105.375 84.6506 104.75 84.4091 104.029 84.4091C102.943 84.4091 102.086 84.9489 101.455 86.0284C100.824 87.1023 100.506 88.679 100.5 90.7585C100.495 92.1506 100.634 93.321 100.918 94.2699C101.208 95.2187 101.617 95.9347 102.145 96.4176C102.674 96.8949 103.301 97.1335 104.029 97.1335ZM120.037 99.8011C118.633 99.8011 117.429 99.446 116.423 98.7358C115.423 98.0199 114.653 96.9886 114.113 95.642C113.579 94.2898 113.312 92.6619 113.312 90.7585C113.318 88.8551 113.588 87.2358 114.122 85.9006C114.662 84.5597 115.431 83.5369 116.431 82.8324C117.437 82.1278 118.639 81.7756 120.037 81.7756C121.434 81.7756 122.636 82.1278 123.642 82.8324C124.647 83.5369 125.417 84.5597 125.951 85.9006C126.491 87.2415 126.761 88.8608 126.761 90.7585C126.761 92.6676 126.491 94.2983 125.951 95.6506C125.417 96.9972 124.647 98.0256 123.642 98.7358C122.642 99.446 121.44 99.8011 120.037 99.8011ZM120.037 97.1335C121.127 97.1335 121.988 96.5966 122.619 95.5227C123.255 94.4432 123.573 92.8551 123.573 90.7585C123.573 89.3722 123.429 88.2074 123.139 87.2642C122.849 86.321 122.44 85.6108 121.912 85.1335C121.383 84.6506 120.758 84.4091 120.037 84.4091C118.951 84.4091 118.093 84.9489 117.463 86.0284C116.832 87.1023 116.514 88.679 116.508 90.7585C116.502 92.1506 116.642 93.321 116.926 94.2699C117.216 95.2187 117.625 95.9347 118.153 96.4176C118.681 96.8949 119.309 97.1335 120.037 97.1335ZM136.044 99.8011C134.641 99.8011 133.436 99.446 132.431 98.7358C131.431 98.0199 130.661 96.9886 130.121 95.642C129.587 94.2898 129.32 92.6619 129.32 90.7585C129.326 88.8551 129.595 87.2358 130.13 85.9006C130.669 84.5597 131.439 83.5369 132.439 82.8324C133.445 82.1278 134.647 81.7756 136.044 81.7756C137.442 81.7756 138.644 82.1278 139.649 82.8324C140.655 83.5369 141.425 84.5597 141.959 85.9006C142.499 87.2415 142.769 88.8608 142.769 90.7585C142.769 92.6676 142.499 94.2983 141.959 95.6506C141.425 96.9972 140.655 98.0256 139.649 98.7358C138.649 99.446 137.448 99.8011 136.044 99.8011ZM136.044 97.1335C137.135 97.1335 137.996 96.5966 138.627 95.5227C139.263 94.4432 139.581 92.8551 139.581 90.7585C139.581 89.3722 139.436 88.2074 139.147 87.2642C138.857 86.321 138.448 85.6108 137.919 85.1335C137.391 84.6506 136.766 84.4091 136.044 84.4091C134.959 84.4091 134.101 84.9489 133.47 86.0284C132.84 87.1023 132.522 88.679 132.516 90.7585C132.51 92.1506 132.649 93.321 132.934 94.2699C133.223 95.2187 133.632 95.9347 134.161 96.4176C134.689 96.8949 135.317 97.1335 136.044 97.1335ZM157.639 99.4688H151.724V82.0142H157.758C159.491 82.0142 160.98 82.3636 162.224 83.0625C163.474 83.7557 164.434 84.7528 165.105 86.054C165.775 87.3551 166.11 88.9119 166.11 90.7244C166.11 92.5426 165.772 94.1051 165.096 95.4119C164.426 96.7187 163.457 97.7216 162.19 98.4205C160.929 99.1193 159.412 99.4688 157.639 99.4688ZM154.886 96.733H157.485C158.701 96.733 159.716 96.5114 160.528 96.0682C161.341 95.6193 161.951 94.9517 162.36 94.0653C162.769 93.1733 162.974 92.0597 162.974 90.7244C162.974 89.3892 162.769 88.2812 162.36 87.4006C161.951 86.5142 161.346 85.8523 160.545 85.4148C159.75 84.9716 158.761 84.75 157.579 84.75H154.886V96.733ZM169.115 99.4688V82.0142H172.277V90.0341H172.49L179.299 82.0142H183.16L176.41 89.8466L183.22 99.4688H179.419L174.211 91.9858L172.277 94.2699V99.4688H169.115ZM185.357 99.4688V82.0142H188.519V90.0341H188.732L195.542 82.0142H199.402L192.652 89.8466L199.462 99.4688H195.661L190.453 91.9858L188.519 94.2699V99.4688H185.357Z" fill="black"/>
<path d="M208.182 84.9687C208.182 82.7596 209.973 80.9688 212.182 80.9688H246.182C248.391 80.9688 250.182 82.7596 250.182 84.9688V95.9688C250.182 98.1779 248.391 99.9688 246.182 99.9688H212.182C209.973 99.9688 208.182 98.1779 208.182 95.9687V84.9687Z" fill="#ACE8A3"/>
<path d="M213.515 92.9105C213.227 92.9105 213.158 92.7058 213.362 92.4554L216.812 88.2154C216.91 88.0948 217.043 88.027 217.182 88.027C217.321 88.027 217.454 88.0948 217.553 88.2154L221.003 92.4554C221.207 92.7058 221.138 92.9105 220.85 92.9105L213.515 92.9105Z" fill="#232323"/>
<path d="M229.787 86.696V93.9688H228.469V87.978H228.426L226.725 89.0646V87.8572L228.533 86.696H229.787ZM231.633 93.9688V93.017L234.158 90.5419C234.399 90.2981 234.601 90.0814 234.762 89.892C234.923 89.7027 235.043 89.5192 235.124 89.3416C235.204 89.1641 235.245 88.9747 235.245 88.7734C235.245 88.5438 235.193 88.3473 235.088 88.1839C234.984 88.0182 234.841 87.8904 234.659 87.8004C234.476 87.7105 234.269 87.6655 234.037 87.6655C233.798 87.6655 233.589 87.7152 233.409 87.8146C233.229 87.9117 233.089 88.0502 232.99 88.2301C232.893 88.41 232.844 88.6243 232.844 88.8729H231.591C231.591 88.4112 231.696 88.0099 231.907 87.669C232.117 87.3281 232.407 87.0642 232.777 86.8771C233.148 86.6901 233.574 86.5966 234.055 86.5966C234.543 86.5966 234.971 86.6877 235.341 86.87C235.71 87.0523 235.996 87.3021 236.2 87.6193C236.406 87.9366 236.509 88.2988 236.509 88.706C236.509 88.9782 236.457 89.2457 236.353 89.5085C236.248 89.7713 236.065 90.0625 235.802 90.3821C235.542 90.7017 235.176 91.0888 234.705 91.5433L233.451 92.8182V92.8679H236.619V93.9688H231.633ZM241.733 92.6051V92.2216C241.733 91.9399 241.792 91.6806 241.91 91.4439C242.031 91.2071 242.206 91.0166 242.436 90.8722C242.665 90.7277 242.943 90.6555 243.27 90.6555C243.606 90.6555 243.888 90.7277 244.115 90.8722C244.343 91.0142 244.514 91.2036 244.63 91.4403C244.749 91.6771 244.808 91.9375 244.808 92.2216V92.6051C244.808 92.8868 244.749 93.1461 244.63 93.3828C244.512 93.6196 244.338 93.8101 244.108 93.9545C243.881 94.099 243.602 94.1712 243.27 94.1712C242.939 94.1712 242.658 94.099 242.429 93.9545C242.199 93.8101 242.025 93.6196 241.907 93.3828C241.791 93.1461 241.733 92.8868 241.733 92.6051ZM242.659 92.2216V92.6051C242.659 92.7921 242.704 92.9638 242.794 93.12C242.884 93.2763 243.043 93.3544 243.27 93.3544C243.5 93.3544 243.657 93.2775 243.742 93.1236C243.83 92.9673 243.874 92.7945 243.874 92.6051V92.2216C243.874 92.0322 243.832 91.8594 243.75 91.7031C243.667 91.5445 243.507 91.4652 243.27 91.4652C243.048 91.4652 242.89 91.5445 242.798 91.7031C242.706 91.8594 242.659 92.0322 242.659 92.2216ZM238.036 88.4432V88.0597C238.036 87.7756 238.096 87.5152 238.217 87.2784C238.338 87.0417 238.513 86.8523 238.742 86.7102C238.972 86.5658 239.25 86.4936 239.577 86.4936C239.911 86.4936 240.191 86.5658 240.419 86.7102C240.648 86.8523 240.821 87.0417 240.937 87.2784C241.053 87.5152 241.111 87.7756 241.111 88.0597V88.4432C241.111 88.7273 241.052 88.9877 240.934 89.2244C240.818 89.4588 240.645 89.647 240.415 89.7891C240.185 89.9311 239.906 90.0021 239.577 90.0021C239.243 90.0021 238.961 89.9311 238.732 89.7891C238.505 89.647 238.332 89.4576 238.213 89.2209C238.095 88.9841 238.036 88.7249 238.036 88.4432ZM238.97 88.0597V88.4432C238.97 88.6326 239.014 88.8054 239.101 88.9616C239.191 89.1155 239.35 89.1925 239.577 89.1925C239.804 89.1925 239.961 89.1155 240.046 88.9616C240.133 88.8054 240.177 88.6326 240.177 88.4432V88.0597C240.177 87.8703 240.136 87.6974 240.053 87.5412C239.97 87.3826 239.811 87.3033 239.577 87.3033C239.352 87.3033 239.195 87.3826 239.105 87.5412C239.015 87.6998 238.97 87.8726 238.97 88.0597ZM238.441 93.9688L243.441 86.696H244.328L239.328 93.9688H238.441Z" fill="#232323"/>
<path d="M28.1019 130.469V129.19L32.903 123.935C33.4665 123.319 33.9305 122.784 34.2951 122.33C34.6596 121.87 34.9295 121.439 35.1047 121.037C35.2846 120.63 35.3746 120.204 35.3746 119.759C35.3746 119.247 35.2515 118.804 35.0053 118.43C34.7638 118.056 34.4324 117.768 34.011 117.564C33.5896 117.36 33.1161 117.259 32.5905 117.259C32.0318 117.259 31.5441 117.375 31.1274 117.607C30.7155 117.834 30.3959 118.153 30.1686 118.565C29.9461 118.977 29.8348 119.46 29.8348 120.014H28.1587C28.1587 119.162 28.3552 118.414 28.7482 117.77C29.1412 117.126 29.6762 116.624 30.3533 116.264C31.0351 115.904 31.7998 115.724 32.6473 115.724C33.4996 115.724 34.2548 115.904 34.913 116.264C35.5711 116.624 36.0872 117.109 36.4612 117.72C36.8353 118.331 37.0223 119.01 37.0223 119.759C37.0223 120.294 36.9253 120.817 36.7311 121.328C36.5417 121.835 36.2103 122.401 35.7368 123.026C35.2681 123.646 34.617 124.403 33.7837 125.298L30.5166 128.793V128.906H37.278V130.469H28.1019ZM45.126 130.668C44.1885 130.668 43.3528 130.507 42.6189 130.185C41.8898 129.863 41.3097 129.415 40.8789 128.842C40.4527 128.265 40.2207 127.595 40.1828 126.832H41.9726C42.0105 127.301 42.1715 127.706 42.4556 128.047C42.7397 128.383 43.1113 128.643 43.5706 128.828C44.0299 129.013 44.5389 129.105 45.0976 129.105C45.7226 129.105 46.2766 128.996 46.7595 128.778C47.2425 128.561 47.6213 128.258 47.8959 127.869C48.1705 127.481 48.3078 127.031 48.3078 126.52C48.3078 125.985 48.1753 125.514 47.9101 125.107C47.645 124.695 47.2567 124.373 46.7453 124.141C46.234 123.909 45.609 123.793 44.8703 123.793H43.7056V122.23H44.8703C45.448 122.23 45.9546 122.126 46.3902 121.918C46.8306 121.709 47.1738 121.416 47.4201 121.037C47.671 120.658 47.7965 120.213 47.7965 119.702C47.7965 119.209 47.6876 118.781 47.4698 118.416C47.252 118.052 46.9442 117.768 46.5465 117.564C46.1535 117.36 45.6895 117.259 45.1544 117.259C44.6525 117.259 44.1791 117.351 43.734 117.536C43.2936 117.715 42.9338 117.978 42.6544 118.324C42.3751 118.665 42.2236 119.077 42.1999 119.56H40.4953C40.5237 118.797 40.7534 118.13 41.1843 117.557C41.6151 116.979 42.1786 116.529 42.8746 116.207C43.5754 115.885 44.3448 115.724 45.1828 115.724C46.0825 115.724 46.8542 115.907 47.4982 116.271C48.1421 116.631 48.6369 117.107 48.9826 117.699C49.3282 118.291 49.501 118.93 49.501 119.616C49.501 120.436 49.2856 121.134 48.8547 121.712C48.4286 122.289 47.8486 122.689 47.1147 122.912V123.026C48.0332 123.177 48.7505 123.568 49.2666 124.197C49.7827 124.822 50.0408 125.597 50.0408 126.52C50.0408 127.311 49.8254 128.021 49.3945 128.651C48.9684 129.276 48.386 129.768 47.6473 130.128C46.9087 130.488 46.0683 130.668 45.126 130.668ZM52.6047 127.486V126.037L58.9968 115.923H60.0479V118.168H59.3377L54.5081 125.81V125.923H63.1161V127.486H52.6047ZM59.4513 130.469V127.045V126.371V115.923H61.1274V130.469H59.4513ZM66.3441 130.582C65.9937 130.582 65.693 130.457 65.4421 130.206C65.1911 129.955 65.0657 129.654 65.0657 129.304C65.0657 128.954 65.1911 128.653 65.4421 128.402C65.693 128.151 65.9937 128.026 66.3441 128.026C66.6944 128.026 66.9951 128.151 67.246 128.402C67.497 128.653 67.6225 128.954 67.6225 129.304C67.6225 129.536 67.5633 129.749 67.4449 129.943C67.3313 130.137 67.1774 130.294 66.9833 130.412C66.7939 130.526 66.5808 130.582 66.3441 130.582ZM74.8384 130.668C73.7683 130.668 72.8568 130.376 72.104 129.794C71.3512 129.207 70.7759 128.357 70.3782 127.244C69.9804 126.127 69.7816 124.777 69.7816 123.196C69.7816 121.624 69.9804 120.282 70.3782 119.169C70.7806 118.052 71.3583 117.199 72.1111 116.612C72.8687 116.02 73.7778 115.724 74.8384 115.724C75.899 115.724 76.8057 116.02 77.5585 116.612C78.3161 117.199 78.8938 118.052 79.2915 119.169C79.694 120.282 79.8952 121.624 79.8952 123.196C79.8952 124.777 79.6963 126.127 79.2986 127.244C78.9009 128.357 78.3256 129.207 77.5728 129.794C76.8199 130.376 75.9085 130.668 74.8384 130.668ZM74.8384 129.105C75.899 129.105 76.7228 128.594 77.31 127.571C77.8971 126.548 78.1907 125.09 78.1907 123.196C78.1907 121.937 78.0557 120.864 77.7858 119.979C77.5207 119.093 77.1371 118.419 76.6353 117.955C76.1381 117.491 75.5391 117.259 74.8384 117.259C73.7872 117.259 72.9657 117.777 72.3739 118.814C71.782 119.846 71.4861 121.307 71.4861 123.196C71.4861 124.455 71.6187 125.526 71.8838 126.406C72.149 127.287 72.5301 127.957 73.0273 128.416C73.5292 128.875 74.1329 129.105 74.8384 129.105ZM87.3384 130.668C86.2683 130.668 85.3568 130.376 84.604 129.794C83.8512 129.207 83.2759 128.357 82.8782 127.244C82.4804 126.127 82.2816 124.777 82.2816 123.196C82.2816 121.624 82.4804 120.282 82.8782 119.169C83.2806 118.052 83.8583 117.199 84.6111 116.612C85.3687 116.02 86.2778 115.724 87.3384 115.724C88.399 115.724 89.3057 116.02 90.0585 116.612C90.8161 117.199 91.3938 118.052 91.7915 119.169C92.194 120.282 92.3952 121.624 92.3952 123.196C92.3952 124.777 92.1963 126.127 91.7986 127.244C91.4009 128.357 90.8256 129.207 90.0728 129.794C89.3199 130.376 88.4085 130.668 87.3384 130.668ZM87.3384 129.105C88.399 129.105 89.2228 128.594 89.81 127.571C90.3971 126.548 90.6907 125.09 90.6907 123.196C90.6907 121.937 90.5557 120.864 90.2858 119.979C90.0207 119.093 89.6371 118.419 89.1353 117.955C88.6381 117.491 88.0391 117.259 87.3384 117.259C86.2872 117.259 85.4657 117.777 84.8739 118.814C84.282 119.846 83.9861 121.307 83.9861 123.196C83.9861 124.455 84.1187 125.526 84.3838 126.406C84.649 127.287 85.0301 127.957 85.5273 128.416C86.0292 128.875 86.6329 129.105 87.3384 129.105ZM99.8384 130.668C98.7683 130.668 97.8568 130.376 97.104 129.794C96.3512 129.207 95.7759 128.357 95.3782 127.244C94.9804 126.127 94.7816 124.777 94.7816 123.196C94.7816 121.624 94.9804 120.282 95.3782 119.169C95.7806 118.052 96.3583 117.199 97.1111 116.612C97.8687 116.02 98.7778 115.724 99.8384 115.724C100.899 115.724 101.806 116.02 102.559 116.612C103.316 117.199 103.894 118.052 104.292 119.169C104.694 120.282 104.895 121.624 104.895 123.196C104.895 124.777 104.696 126.127 104.299 127.244C103.901 128.357 103.326 129.207 102.573 129.794C101.82 130.376 100.908 130.668 99.8384 130.668ZM99.8384 129.105C100.899 129.105 101.723 128.594 102.31 127.571C102.897 126.548 103.191 125.09 103.191 123.196C103.191 121.937 103.056 120.864 102.786 119.979C102.521 119.093 102.137 118.419 101.635 117.955C101.138 117.491 100.539 117.259 99.8384 117.259C98.7872 117.259 97.9657 117.777 97.3739 118.814C96.782 119.846 96.4861 121.307 96.4861 123.196C96.4861 124.455 96.6187 125.526 96.8838 126.406C97.149 127.287 97.5301 127.957 98.0273 128.416C98.5292 128.875 99.1329 129.105 99.8384 129.105ZM117.963 130.469H113.475V115.923H118.162C119.573 115.923 120.781 116.214 121.784 116.797C122.788 117.375 123.558 118.205 124.093 119.29C124.628 120.369 124.895 121.662 124.895 123.168C124.895 124.683 124.625 125.987 124.086 127.081C123.546 128.17 122.76 129.008 121.728 129.595C120.695 130.178 119.441 130.469 117.963 130.469ZM115.236 128.906H117.85C119.052 128.906 120.049 128.674 120.84 128.21C121.631 127.746 122.22 127.086 122.608 126.229C122.997 125.372 123.191 124.351 123.191 123.168C123.191 121.993 122.999 120.982 122.615 120.135C122.232 119.283 121.659 118.629 120.897 118.175C120.134 117.715 119.185 117.486 118.049 117.486H115.236V128.906ZM127.85 130.469V115.923H129.611V123.139H129.782L136.316 115.923H138.617L132.509 122.486L138.617 130.469H136.486L131.429 123.707L129.611 125.753V130.469H127.85ZM140.897 130.469V115.923H142.658V123.139H142.828L149.363 115.923H151.664L145.556 122.486L151.664 130.469H149.533L144.476 123.707L142.658 125.753V130.469H140.897Z" fill="#21776A"/>
<defs>
<linearGradient id="paint0_linear_27_16909" x1="173.612" y1="161.006" x2="181.782" y2="279.221" gradientUnits="userSpaceOnUse">
<stop stop-color="#88DE7C"/>
<stop offset="1" stop-color="#88DE7C" stop-opacity="0"/>
</linearGradient>
</defs>
</svg>
