<svg width="22" height="22" viewBox="0 0 22 22" fill="none" xmlns="http://www.w3.org/2000/svg">
<path d="M17.5671 2.97559L4.43547 2.97559C3.62965 2.97559 2.97639 3.62884 2.97639 4.43466L2.97639 19.0254C2.97639 19.8312 3.62964 20.4844 4.43547 20.4844L17.5671 20.4844C18.373 20.4844 19.0262 19.8312 19.0262 19.0254L19.0262 4.43466C19.0262 3.62884 18.373 2.97559 17.5671 2.97559Z" fill="#E2ECFD"/>
<path d="M13.1892 5.16413L8.812 5.16413C7.80471 5.16413 6.98816 4.34757 6.98816 3.34029C6.98816 2.333 7.80471 1.51645 8.812 1.51645L13.1892 1.51645C14.1965 1.51645 15.0131 2.333 15.0131 3.34029C15.0131 4.34757 14.1965 5.16413 13.1892 5.16413Z" fill="#E2ECFD"/>
<path d="M14.9773 2.97559L17.5671 2.97559C18.373 2.97559 19.0262 3.62884 19.0262 4.43466L19.0262 19.0254C19.0262 19.8312 18.373 20.4844 17.5671 20.4844L4.43547 20.4844C3.62965 20.4844 2.97639 19.8312 2.97639 19.0254L2.97639 4.43466C2.97639 3.62884 3.62964 2.97559 4.43547 2.97559H7.02532" fill="#E2ECFD"/>
<path d="M14.9773 2.97559L17.5671 2.97559C18.373 2.97559 19.0262 3.62884 19.0262 4.43466L19.0262 19.0254C19.0262 19.8312 18.373 20.4844 17.5671 20.4844L4.43547 20.4844C3.62965 20.4844 2.97639 19.8312 2.97639 19.0254L2.97639 4.43466C2.97639 3.62884 3.62964 2.97559 4.43547 2.97559H7.02532" stroke="#03113A" stroke-width="1.573" stroke-linecap="round" stroke-linejoin="round"/>
<path d="M13.1892 5.16413L8.812 5.16413C7.80471 5.16413 6.98816 4.34757 6.98816 3.34029C6.98816 2.333 7.80471 1.51645 8.812 1.51645L13.1892 1.51645C14.1965 1.51645 15.0131 2.333 15.0131 3.34029C15.0131 4.34757 14.1965 5.16413 13.1892 5.16413Z" fill="#E2ECFD" stroke="#03113A" stroke-width="1.573" stroke-linecap="round" stroke-linejoin="round"/>
<path d="M2.97639 13.1434H7.12598L9.39631 9.54131L12.6063 16.8367L15.0506 13.1434L19.0262 13.1434" fill="#E2ECFD"/>
<path d="M2.97639 13.1434H7.12598L9.39631 9.54131L12.6063 16.8367L15.0506 13.1434L19.0262 13.1434" stroke="#03113A" stroke-width="1.573" stroke-linecap="round" stroke-linejoin="round"/>
</svg>
