<svg preserveAspectRatio="none" width="100%" height="100%" overflow="visible" style="display: block;" viewBox="0 0 615.733 387.921" fill="none" xmlns="http://www.w3.org/2000/svg">
<g id="elements">
<path id="vector_3" d="M30.4305 40.3354C68.8621 62.4616 106.93 85.2187 144.71 108.441C181.499 131.053 586.092 385.071 590.606 387.659C592.661 388.836 594.457 385.738 592.455 384.492C269.749 184.014 189.99 127.792 31.102 39.1907C30.3537 38.7741 29.6903 39.9107 30.4305 40.3354Z" fill="var(--fill-0, black)"/>
<path id="vector_4" d="M126.799 80.3769C128.55 81.3477 609.739 341.239 613.55 343.205C615.204 344.058 616.648 341.635 615.018 340.693C514.407 282.793 131.907 80.6398 128.028 78.5526C127.312 78.1683 126.087 79.9805 126.803 80.3728L126.799 80.3769Z" fill="var(--fill-0, black)"/>
<path id="vector_5" d="M0 0.021726C32.2751 16.8813 83.0277 36.4724 238.849 126.538C240.265 127.356 241.503 125.22 240.123 124.354C136.033 59.0678 0.562255 -1.31312 0 0.021726Z" fill="var(--fill-0, black)"/>
</g>
</svg>
