<svg preserveAspectRatio="none" width="100%" height="100%" overflow="visible" style="display: block;" viewBox="0 0 685.657 310.041" fill="none" xmlns="http://www.w3.org/2000/svg">
<g id="paper plane">
<path id="vector_6" d="M346.723 155.518C306.087 84.3905 307.422 85.5797 303.801 82.9504C301.01 80.9279 300.974 81.2353 266.996 71.8594L279.293 58.3451C280.025 57.5159 279.96 56.3266 279.244 55.5864L250.638 26.0377C241.86 16.9728 238.422 15.5368 228.88 14.1373C219.099 12.7013 67.6299 0.242719 2.05241 1.92161e-05C0.35755 -0.00807078 -1.09865 2.54027 1.15037 3.84681C72.8804 45.4092 250.921 134.633 252.422 134.633C253.615 134.633 252.972 134.949 265.321 122.191C345.105 158.196 344.158 158.543 344.963 158.543C346.512 158.543 347.491 156.865 346.723 155.518ZM228.293 18.1378C241.201 20.0349 239.405 20.2452 271.785 53.6974C255.573 50.4169 57.837 11.2977 24.3201 4.5304C96.6326 6.88863 219.532 16.8515 228.293 18.1378ZM26.4599 10.7031C83.005 25.9649 221.72 63.462 296.088 84.079C297.985 84.6048 299.946 85.1468 301.427 86.2188C303.959 88.0592 302.325 85.9801 339.935 151.784C301.16 133.412 97.0371 42.2096 26.4599 10.7031Z" fill="var(--fill-0, black)"/>
<path id="vector_7" d="M435.098 122.466C416.54 93.6252 417.826 95.0895 416.564 94.8791L414.594 94.5475C415.439 89.1191 415.609 89.6449 414.655 88.2817C413.518 86.6637 410.593 83.0961 403.316 73.8569C402.88 73.3027 402.192 73.0196 401.492 73.1005L333.548 81.0453C331.53 81.1464 331.024 84.1842 333.075 84.9487C405.181 123.235 404.336 123.04 405.375 122.875C406.65 122.668 406.633 122.195 410.051 116.245C434.722 126.276 432.926 125.682 433.723 125.552C435.159 125.322 435.891 123.688 435.102 122.462L435.098 122.466ZM400.837 77.251L408.814 87.3757L353.955 82.732L400.837 77.251ZM351.496 88.0755L415.011 98.7219L428.238 119.279L351.496 88.0755Z" fill="var(--fill-0, black)"/>
<path id="vector_8" d="M492.921 218.171C474.363 189.33 475.649 190.794 474.387 190.584L472.417 190.252C473.263 184.824 473.432 185.35 472.478 183.986C471.341 182.368 468.417 178.801 461.14 169.562C460.703 169.008 460.015 168.725 459.315 168.806L391.372 176.75C389.353 176.851 388.847 179.889 390.898 180.653C463.004 218.939 462.159 218.745 463.199 218.579C464.473 218.373 464.457 217.9 467.875 211.95C492.545 221.981 490.749 221.387 491.546 221.257C492.982 221.027 493.714 219.392 492.925 218.167L492.921 218.171ZM458.66 172.956L466.637 183.08L411.779 178.437L458.66 172.956ZM409.319 183.78L472.834 194.427L486.061 214.983L409.319 183.78Z" fill="var(--fill-0, black)"/>
<path id="vector_9" d="M569.683 157.358C551.125 128.517 552.411 129.982 551.149 129.771L549.179 129.44C550.025 124.011 550.194 124.537 549.24 123.174C548.103 121.556 545.179 117.988 537.902 108.749C537.465 108.195 536.777 107.912 536.077 107.993L468.133 115.937C466.115 116.039 465.609 119.076 467.66 119.841C539.766 158.127 538.921 157.933 539.961 157.767C541.235 157.56 541.219 157.087 544.637 151.137C569.307 161.169 567.511 160.574 568.308 160.445C569.744 160.214 570.476 158.58 569.687 157.354L569.683 157.358ZM535.422 112.143L543.399 122.268L488.54 117.624L535.422 112.143ZM486.081 122.968L549.596 133.614L562.823 154.171L486.081 122.968Z" fill="var(--fill-0, black)"/>
<path id="vector_10" d="M627.506 232.13C608.948 203.289 610.234 204.754 608.972 204.543L607.002 204.211C607.848 198.783 608.018 199.309 607.063 197.946C605.926 196.328 603.002 192.76 595.725 183.521C595.288 182.967 594.6 182.684 593.901 182.765L525.957 190.709C523.938 190.81 523.433 193.848 525.483 194.613C597.59 232.899 596.744 232.704 597.784 232.539C599.058 232.332 599.042 231.859 602.46 225.909C627.13 235.94 625.334 235.346 626.131 235.216C627.567 234.986 628.299 233.352 627.511 232.126L627.506 232.13ZM593.245 186.915L601.222 197.04L546.364 192.396L593.245 186.915ZM543.904 197.739L607.419 208.386L620.646 228.943L543.904 197.739Z" fill="var(--fill-0, black)"/>
<path id="vector_11" d="M685.33 306.902C666.771 278.061 668.058 279.525 666.796 279.315L664.826 278.983C665.671 273.555 665.841 274.081 664.886 272.718C663.75 271.1 660.825 267.532 653.548 258.293C653.111 257.739 652.424 257.456 651.724 257.537L583.78 265.481C581.762 265.582 581.256 268.62 583.307 269.385C655.413 307.67 654.568 307.476 655.607 307.31C656.881 307.104 656.865 306.631 660.283 300.681C684.954 310.712 683.158 310.118 683.954 309.988C685.39 309.758 686.123 308.123 685.334 306.898L685.33 306.902ZM651.069 261.687L659.045 271.811L604.187 267.168L651.069 261.687ZM601.728 272.511L665.242 283.158L678.469 303.714L601.728 272.511Z" fill="var(--fill-0, black)"/>
</g>
</svg>
