<svg preserveAspectRatio="none" width="100%" height="100%" overflow="visible" style="display: block;" viewBox="0 0 298.011 279.006" fill="none" xmlns="http://www.w3.org/2000/svg">
<g id="sun">
<path id="vector" d="M296.784 167.733C281.15 161.039 266.196 152.641 252.346 142.771C245.429 137.845 238.75 132.23 236.736 124.557C233.896 113.736 240.935 104.417 247.382 97.5078C251.363 93.2403 275.487 71.644 275.73 71.4256C277.344 69.9815 275.843 67.328 273.76 67.9914C273.388 68.1128 236.303 79.9767 217.49 77.9219C199.061 75.9156 193.191 69.306 188.398 59.6628C179.641 42.0427 176.959 21.7166 180.842 2.42195C181.311 0.0839394 178.023 -0.992031 177.024 1.17204C170.001 16.3408 161.964 29.4426 151.738 42.4068C146.063 49.6028 139.668 56.7342 131.384 60.1684C117.437 65.9406 102.114 59.9176 92.4224 52.3494C81.064 43.4828 73.2774 30.9473 65.7456 18.8244C64.4472 16.7372 61.2354 18.3633 62.1496 20.6447C72.3713 46.1605 77.2658 91.5778 46.8959 104.829C36.5367 109.352 25.5707 110.351 1.7456 113.611C-0.119143 113.866 -0.653083 116.325 0.948737 117.328C44.4244 144.539 46.7179 145.465 50.7346 150.246C59.1078 160.213 53.5256 177.724 46.2002 189.693C38.6886 201.966 29.8462 213.636 21.6591 225.119C20.4618 226.798 22.274 229.007 24.1711 228.121C45.9534 217.802 73.6374 202.091 95.6179 213.644C106.151 219.185 110.415 231.854 110.888 241.866C111.434 253.43 108.178 265.177 105.819 276.576C105.342 278.886 108.566 279.994 109.614 277.882C123.832 249.131 143.58 218.761 175.834 219.339C202.394 219.865 221.061 244.871 227.853 255.603C229.184 257.698 232.408 255.987 231.417 253.71C224.771 238.484 218.436 222.243 220.212 205.801C224.022 170.585 257.572 171.082 287.124 171.515C290.166 171.56 293.135 171.604 295.991 171.604C298.183 171.604 298.802 168.582 296.788 167.725L296.784 167.733ZM216.187 205.376C214.889 217.381 217.587 229.092 221.636 240.357C208.101 224.581 191.974 215.622 175.911 215.302C146.213 214.728 126.198 239.463 112.842 263.082C114.233 256.068 115.269 248.912 114.929 241.688C114.403 230.56 109.545 216.411 97.4988 210.08C76.4851 199.029 50.7265 210.756 29.5914 221.026C36.48 211.5 43.4941 201.873 49.6465 191.817C58.0601 178.076 63.5734 159.259 53.829 147.654C49.3189 142.286 46.3741 141.004 7.81715 116.867C25.065 114.489 37.4994 113.356 48.5179 108.551C76.3597 96.3994 77.6258 61.4911 70.7048 34.0255C76.0967 41.8931 82.2775 49.5705 89.9387 55.549C100.525 63.817 117.376 70.3577 132.937 63.914C142.075 60.1279 148.903 52.5476 154.918 44.9228C162.688 35.0691 169.403 24.8151 175.264 13.8127C174.192 30.1747 177.452 46.7309 184.778 61.4749C190.239 72.4611 197.216 79.7947 217.053 81.9507C231.129 83.4878 253.947 77.9057 266.353 74.427C258.793 81.2509 247.196 91.7881 244.429 94.7531C237.274 102.422 229.491 112.854 232.832 125.588C235.174 134.503 242.468 140.7 250.007 146.068C261.471 154.235 273.679 161.411 286.396 167.47C256.815 167.058 220.37 166.847 216.199 205.376H216.187Z" fill="var(--fill-0, black)"/>
<path id="vector_2" d="M145.812 188.424C117.06 188.424 93.6642 165.031 93.6642 136.275C93.6642 107.52 117.056 84.1273 145.812 84.1273C174.568 84.1273 197.96 107.52 197.96 136.275C197.96 165.031 174.568 188.424 145.812 188.424ZM145.812 88.1764C119.289 88.1764 97.7092 109.752 97.7092 136.279C97.7092 162.807 119.285 184.383 145.812 184.383C172.339 184.383 193.915 162.807 193.915 136.279C193.915 109.752 172.339 88.1764 145.812 88.1764Z" fill="var(--fill-0, black)"/>
</g>
</svg>
