<svg width="22" height="22" viewBox="0 0 22 22" fill="none" xmlns="http://www.w3.org/2000/svg">
<path fill-rule="evenodd" clip-rule="evenodd" d="M20.2679 7.20099L14.4929 7.21015C14.2009 7.2106 14.0552 7.5638 14.2621 7.76978L20.0898 13.5747C20.2658 13.7501 20.5677 13.6739 20.6367 13.4351C20.9039 12.5109 21.0493 11.5353 21.0493 10.5246C21.0493 9.44687 20.884 8.40849 20.5822 7.42976C20.54 7.29281 20.4113 7.20077 20.2679 7.20099Z" fill="#005C3C"/>
<path fill-rule="evenodd" clip-rule="evenodd" d="M19.7656 15.0644L15.6735 10.9882C15.4666 10.7822 15.1141 10.929 15.1145 11.2207L15.1281 19.4458C15.1286 19.6949 15.3967 19.8542 15.6145 19.7335C17.4002 18.745 18.8677 17.2533 19.8257 15.4489C19.8929 15.3222 19.8672 15.1656 19.7656 15.0644Z" fill="#005C3C"/>
<mask id="mask0_27_16797" style="mask-type:luminance" maskUnits="userSpaceOnUse" x="7" y="14" width="7" height="8">
<path d="M7.3779 14.1632H13.8513V21.0493H7.3779V14.1632Z" fill="white"/>
</mask>
<g mask="url(#mask0_27_16797)">
<path fill-rule="evenodd" clip-rule="evenodd" d="M13.2825 14.2603L7.47376 20.0893C7.29839 20.2656 7.37457 20.5674 7.61339 20.6365C8.53783 20.9037 9.51389 21.0493 10.5246 21.0493C11.6032 21.0493 12.6429 20.8847 13.6223 20.5828C13.7595 20.5406 13.8515 20.4117 13.8513 20.2685L13.8421 14.4911C13.8417 14.1991 13.4885 14.0534 13.2825 14.2603Z" fill="#005C3C"/>
</g>
<path fill-rule="evenodd" clip-rule="evenodd" d="M9.83003 15.1144L1.60339 15.128C1.35452 15.1284 1.19501 15.3965 1.31565 15.6143C2.30421 17.4 3.79611 18.8678 5.60054 19.8257C5.72721 19.893 5.88382 19.8673 5.98502 19.7656L10.0626 15.6733C10.2686 15.4665 10.1218 15.1139 9.83003 15.1144Z" fill="#005C3C"/>
<path fill-rule="evenodd" clip-rule="evenodd" d="M6.78613 13.2824L0.959521 7.47524C0.783255 7.29965 0.481436 7.37583 0.412404 7.61487C0.145436 8.53887 0 9.51426 0 10.5247C0 11.6031 0.164649 12.6428 0.466468 13.6222C0.508468 13.7592 0.637372 13.8514 0.780798 13.8512L6.55535 13.842C6.84734 13.8416 6.99278 13.4884 6.78613 13.2824Z" fill="#005C3C"/>
<path fill-rule="evenodd" clip-rule="evenodd" d="M5.93487 9.82827L5.92124 1.60342C5.92079 1.35433 5.65271 1.19504 5.43489 1.31568C3.64922 2.30424 2.18168 3.79591 1.22372 5.60012C1.15647 5.72679 1.18239 5.8834 1.28381 5.9846L5.37613 10.0608C5.58278 10.2668 5.93531 10.12 5.93487 9.82827Z" fill="#005C3C"/>
<path fill-rule="evenodd" clip-rule="evenodd" d="M7.76982 6.7859L13.5752 0.959968C13.7506 0.783926 13.6744 0.482106 13.4356 0.413074C12.5111 0.14566 11.5353 0 10.5246 0C9.44714 0 8.40876 0.164202 7.43002 0.465351C7.29308 0.507574 7.20081 0.636479 7.20103 0.779904L7.21019 6.55513C7.21064 6.84712 7.56384 6.99255 7.76982 6.7859Z" fill="#005C3C"/>
<path fill-rule="evenodd" clip-rule="evenodd" d="M11.2224 5.93469L19.4501 5.92106C19.699 5.92061 19.8583 5.65253 19.7377 5.43471C18.7486 3.64859 17.2547 2.18172 15.449 1.22376C15.3223 1.15652 15.1657 1.18243 15.0647 1.28408L10.9896 5.37595C10.7838 5.5826 10.9306 5.93513 11.2224 5.93469Z" fill="#005C3C"/>
</svg>
