<svg width="116" height="116" viewBox="0 0 116 116" fill="none" xmlns="http://www.w3.org/2000/svg">
<circle cx="58" cy="58" r="58" fill="#476656"/>
<path d="M67.3875 49.6939C68.2228 49.1331 68.9394 48.4131 69.4964 47.5752C70.0534 46.7373 70.4398 45.7979 70.6336 44.8106C70.8274 43.8233 70.8248 42.8075 70.6259 41.8212C70.427 40.8349 70.0357 39.8975 69.4745 39.0625L56.7617 47.6127C57.8951 49.2974 59.6511 50.463 61.6437 50.8533C63.6363 51.2436 65.7023 50.8266 67.3875 49.6939Z" fill="#9E606A"/>
<path d="M66.1273 47.8039C67.3123 47.0062 68.132 45.7707 68.4063 44.3688C68.6805 42.9669 68.3868 41.5135 67.5898 40.3281L58.6504 46.3391C59.0451 46.9263 59.5516 47.43 60.141 47.8214C60.7303 48.2129 61.3911 48.4843 62.0854 48.6204C62.7797 48.7564 63.494 48.7543 64.1876 48.6142C64.8811 48.4741 65.5402 48.1988 66.1273 47.8039Z" fill="#F7EDED"/>
<path d="M44.7204 41.0419C45.5612 41.5938 46.5024 41.9746 47.4904 42.1627C48.4783 42.3507 49.4937 42.3424 50.4784 42.138C51.4631 41.9337 52.3979 41.5374 53.2295 40.9717C54.0611 40.4061 54.7731 39.6822 55.3248 38.8414L42.5187 30.4375C41.4047 32.1358 41.0107 34.207 41.4236 36.1956C41.8365 38.1843 43.0224 39.9275 44.7204 41.0419Z" fill="#9E606A"/>
<path d="M45.9664 39.1308C47.1607 39.9142 48.6172 40.1913 50.0158 39.901C51.4143 39.6107 52.6403 38.7768 53.4241 37.5827L44.4239 31.6719C43.6396 32.8656 43.3614 34.3219 43.6507 35.7207C43.9399 37.1194 44.7729 38.3461 45.9664 39.1308Z" fill="#F7EDED"/>
<path d="M31.1926 32.066C30.9611 31.53 31.2079 30.9078 31.7439 30.6763L34.3648 29.5442C34.9008 29.3127 35.5229 29.5595 35.7545 30.0955L36.8866 32.7164C37.1181 33.2523 36.8713 33.8745 36.3353 34.106L33.7144 35.2381C33.1784 35.4696 32.5562 35.2228 32.3247 34.6868L31.1926 32.066Z" fill="#FAF2D7"/>
<path d="M44.5071 47.0816C44.2756 46.5456 44.5224 45.9234 45.0584 45.6919L47.6792 44.5598C48.2152 44.3283 48.8374 44.5751 49.0689 45.1111L50.201 47.732C50.4325 48.268 50.1857 48.8901 49.6497 49.1217L47.0289 50.2537C46.4929 50.4853 45.8707 50.2384 45.6392 49.7025L44.5071 47.0816Z" fill="#FAF2D7"/>
<path d="M58.2493 28.0503C58.0178 27.5144 58.2646 26.8922 58.8006 26.6607L61.4214 25.5286C61.9574 25.2971 62.5796 25.5439 62.8111 26.0799L63.9432 28.7007C64.1747 29.2367 63.9279 29.8589 63.3919 30.0904L60.771 31.2225C60.2351 31.454 59.6129 31.2072 59.3814 30.6712L58.2493 28.0503Z" fill="#FAF2D7"/>
<path d="M44.2345 61.5586C44.8436 61.1268 45.3073 60.5202 45.5642 59.8191C45.8212 59.1181 45.8592 58.3555 45.6734 57.6323C45.4876 56.9092 45.0866 56.2594 44.5236 55.7691C43.9605 55.2787 43.2618 54.9708 42.52 54.8861C42.6536 54.2842 42.634 53.6584 42.4627 53.0662C42.2915 52.4739 41.9742 51.9341 41.54 51.4964C41.1058 51.0587 40.5686 50.7372 39.9777 50.5612C39.3868 50.3853 38.7612 50.3606 38.1582 50.4895C37.6029 49.4174 36.7037 48.5627 35.6047 48.0625C34.5057 47.5623 33.2707 47.4455 32.0974 47.7308C30.9242 48.0161 29.8807 48.687 29.1341 49.636C28.3876 50.585 27.9812 51.7571 27.9802 52.9646C27.3886 53.1302 26.8479 53.4414 26.4075 53.8697C25.967 54.298 25.6409 54.8298 25.4588 55.4166C25.2767 56.0033 25.2444 56.6263 25.3649 57.2287C25.4854 57.8311 25.7548 58.3938 26.1487 58.8653C25.7257 59.1482 25.366 59.5156 25.092 59.9443C24.818 60.373 24.6357 60.8538 24.5566 61.3564C24.4774 61.859 24.5032 62.3726 24.6323 62.8647C24.7613 63.3569 24.9909 63.817 25.3064 64.2161C25.622 64.6153 26.0167 64.9448 26.4659 65.1839C26.915 65.423 27.4087 65.5665 27.916 65.6055C28.4233 65.6445 28.9332 65.578 29.4136 65.4103C29.894 65.2426 30.3344 64.9773 30.7072 64.631C31.3038 65.8166 32.2757 66.7717 33.4716 67.3474C34.6674 67.9232 36.02 68.0874 37.3189 67.8145C38.6178 67.5416 39.79 66.8469 40.6529 65.8385C41.5159 64.8301 42.0212 63.5647 42.0902 62.2392C42.8585 62.2418 43.6083 62.0038 44.2345 61.5586Z" fill="#B7CCBB"/>
<path d="M58.3174 68.7658C58.9841 68.4294 59.533 67.8986 59.8914 67.2435C60.2498 66.5884 60.4009 65.8399 60.3247 65.097C60.2485 64.3542 59.9486 63.6519 59.4646 63.0833C58.9806 62.5146 58.3354 62.1062 57.6143 61.9122C57.8355 61.3368 57.9087 60.715 57.8271 60.1039C57.7455 59.4928 57.5117 58.912 57.1472 58.4148C56.7827 57.9176 56.2991 57.5199 55.7409 57.2582C55.1827 56.9965 54.5677 56.8793 53.9524 56.9171C53.5627 55.7737 52.8004 54.7944 51.7875 54.1362C50.7747 53.4779 49.5701 53.179 48.3671 53.2874C47.164 53.3957 46.0322 53.905 45.1532 54.7336C44.2743 55.5621 43.6991 56.6619 43.52 57.8565C42.9108 57.9331 42.3304 58.161 41.8318 58.5194C41.3332 58.8778 40.9323 59.3553 40.6655 59.9084C40.3988 60.4615 40.2747 61.0726 40.3046 61.6859C40.3346 62.2992 40.5175 62.8953 40.8369 63.4197C40.3767 63.6367 39.9665 63.9466 39.6319 64.3299C39.2973 64.7132 39.0457 65.1616 38.8929 65.6468C38.7401 66.1321 38.6894 66.6437 38.7439 67.1495C38.7985 67.6553 38.9571 68.1444 39.2099 68.5859C39.4626 69.0274 39.804 69.4119 40.2126 69.715C40.6212 70.0181 41.0881 70.2334 41.5839 70.3474C42.0798 70.4613 42.5938 70.4713 43.0937 70.3769C43.5936 70.2824 44.0686 70.0855 44.4887 69.7986C44.9025 71.0599 45.7217 72.1489 46.8189 72.8961C47.916 73.6433 49.2295 74.0066 50.5547 73.9296C51.8798 73.8526 53.1423 73.3395 54.1455 72.4702C55.1487 71.6009 55.8363 70.4243 56.1011 69.1236C56.8591 69.2386 57.6341 69.1135 58.3174 68.7658Z" fill="#7E9970"/>
<path d="M73.7836 73.208C74.5275 73.144 75.2345 72.8556 75.8109 72.381C76.3874 71.9064 76.8061 71.2679 77.0117 70.5501C77.2173 69.8323 77.2001 69.0689 76.9624 68.3611C76.7247 67.6533 76.2776 67.0343 75.6804 66.5861C76.1 66.1343 76.3994 65.5843 76.551 64.9865C76.7027 64.3888 76.7018 63.7626 76.5483 63.1653C76.3949 62.5681 76.0939 62.0189 75.6729 61.5683C75.252 61.1177 74.7245 60.7801 74.1391 60.5864C74.2021 59.3805 73.8584 58.1884 73.1632 57.2011C72.4679 56.2139 71.4613 55.4886 70.3048 55.1415C69.1482 54.7945 67.9086 54.8458 66.7846 55.2872C65.6607 55.7286 64.7175 56.5345 64.1062 57.5759C63.5121 57.4195 62.8883 57.4143 62.2918 57.5609C61.6952 57.7075 61.1449 58.0011 60.6909 58.415C60.237 58.8289 59.8939 59.3499 59.693 59.9304C59.4921 60.5109 59.4398 61.1325 59.5408 61.7384C59.0329 61.7683 58.5366 61.9029 58.0832 62.1339C57.6299 62.3649 57.2292 62.6873 56.9066 63.0807C56.5839 63.4741 56.3461 63.9301 56.2082 64.4199C56.0704 64.9096 56.0354 65.4227 56.1055 65.9266C56.1756 66.4306 56.3492 66.9146 56.6155 67.3482C56.8818 67.7818 57.235 68.1556 57.6528 68.446C58.0706 68.7364 58.544 68.9372 59.0432 69.0357C59.5423 69.1342 60.0565 69.1283 60.5533 69.0184C60.4682 70.3432 60.8236 71.659 61.5642 72.7607C62.3048 73.8625 63.3889 74.6884 64.6478 75.1097C65.9067 75.5311 67.2695 75.5243 68.5241 75.0904C69.7787 74.6565 70.8546 73.8198 71.5842 72.7108C72.2471 73.1029 73.0165 73.2768 73.7836 73.208Z" fill="#B7CCBB"/>
<path d="M90.1935 32.065C90.6998 31.1801 91.5369 30.5326 92.5206 30.2649C93.5043 29.9972 94.554 30.1312 95.4389 30.6374C95.8771 30.8881 96.2616 31.2227 96.5704 31.622C96.8793 32.0213 97.1064 32.4776 97.2389 32.9647C97.3713 33.4518 97.4065 33.9603 97.3424 34.461C97.2783 34.9617 97.1162 35.4449 96.8654 35.883L75.3452 73.4919L68.6734 69.6739L90.1935 32.065Z" fill="white"/>
<path d="M69.2656 78.7C70.4411 79.3727 71.7732 79.7449 73.1859 79.7954C74.5987 79.8459 76.0644 79.5737 77.4993 78.9944C78.9343 78.415 80.3104 77.5398 81.5491 76.4188C82.7878 75.2977 83.8648 73.9528 84.7187 72.4607C85.5726 70.9687 86.1866 69.3588 86.5257 67.7229C86.8647 66.087 86.9222 64.4571 86.6948 62.9264C86.4674 61.3957 85.9596 59.9941 85.2004 58.8017C84.4412 57.6092 83.4454 56.6492 82.27 55.9765C81.0945 55.3038 79.7624 54.9316 78.3497 54.8811C76.9369 54.8305 75.4712 55.1027 74.0363 55.6821C72.6013 56.2615 71.2252 57.1367 69.9865 58.2577C68.7478 59.3787 67.6707 60.7237 66.8169 62.2157C65.963 63.7078 65.349 65.3177 65.0099 66.9536C64.6709 68.5895 64.6134 70.2193 64.8408 71.75C65.0682 73.2807 65.576 74.6823 66.3352 75.8748C67.0944 77.0673 68.0902 78.0273 69.2656 78.7Z" fill="white"/>
<path d="M71.3495 75.055C72.148 75.512 73.0529 75.7648 74.0126 75.7992C74.9722 75.8335 75.9679 75.6486 76.9427 75.255C77.9175 74.8614 78.8523 74.2669 79.6937 73.5054C80.5352 72.7439 81.2668 71.8302 81.8469 70.8167C82.4269 69.8031 82.844 68.7095 83.0743 67.5982C83.3047 66.4869 83.3437 65.3798 83.1892 64.34C83.0348 63.3001 82.6898 62.348 82.1741 61.538C81.6583 60.7279 80.9819 60.0758 80.1834 59.6188C79.3849 59.1619 78.48 58.909 77.5203 58.8747C76.5606 58.8404 75.565 59.0253 74.5902 59.4188C73.6154 59.8124 72.6806 60.4069 71.8392 61.1685C70.9977 61.93 70.2661 62.8436 69.686 63.8572C69.106 64.8707 68.6889 65.9644 68.4586 67.0756C68.2282 68.1869 68.1892 69.2941 68.3437 70.3339C68.4981 71.3737 68.8431 72.3258 69.3588 73.1359C69.8745 73.9459 70.551 74.5981 71.3495 75.055Z" fill="#CCCBC4"/>
<path d="M23.1818 64C23.0142 64 22.8485 64.0332 22.6958 64.0974C22.5431 64.1616 22.4067 64.2552 22.2958 64.3721C22.1849 64.4891 22.102 64.6266 22.0526 64.7756C22.0032 64.9246 21.9883 65.0817 22.0091 65.2365C23.0702 73.1765 27.2123 80.4822 33.6563 85.7794C40.1003 91.0765 48.4021 94 57.0001 94C65.5982 94 73.9 91.0765 80.344 85.7794C86.788 80.4822 90.9301 73.1765 91.9912 65.2365C92.0116 65.0817 91.9965 64.9247 91.9467 64.7758C91.897 64.6269 91.8138 64.4895 91.7027 64.3728C91.5916 64.2561 91.4551 64.1627 91.3022 64.0988C91.1494 64.0349 90.9837 64.002 90.8161 64.0022L23.1818 64Z" fill="#FFCA99"/>
</svg>
